<mxfile host="app.diagrams.net" modified="2023-06-04T21:04:55.156Z" agent="Mozilla/5.0 (Windows NT 10.0; Win64; x64) AppleWebKit/537.36 (KHTML, like Gecko) Chrome/114.0.0.0 Safari/537.36 Edg/114.0.1823.37" etag="GU0kfYA6mfS8IjCNn2mV" version="21.3.7" type="device">
  <diagram id="prtHgNgQTEPvFCAcTncT" name="Page-1">
    <mxGraphModel dx="3184" dy="2529" grid="1" gridSize="10" guides="1" tooltips="1" connect="1" arrows="1" fold="1" page="1" pageScale="1" pageWidth="827" pageHeight="1169" math="0" shadow="0">
      <root>
        <mxCell id="0" />
        <mxCell id="1" parent="0" />
        <mxCell id="1JV9OjOV9Jat2uO-FX8t-4" value="" style="ellipse;html=1;shape=startState;fillColor=#000000;strokeColor=#ff0000;labelBackgroundColor=#1A1A1A;labelBorderColor=none;fontColor=default;" parent="1" vertex="1">
          <mxGeometry x="1503" width="92" height="70" as="geometry" />
        </mxCell>
        <mxCell id="1JV9OjOV9Jat2uO-FX8t-5" value="" style="edgeStyle=orthogonalEdgeStyle;html=1;verticalAlign=bottom;endArrow=open;endSize=8;strokeColor=#ff0000;rounded=0;fontColor=default;" parent="1" source="1JV9OjOV9Jat2uO-FX8t-4" edge="1">
          <mxGeometry relative="1" as="geometry">
            <mxPoint x="1547" y="160" as="targetPoint" />
          </mxGeometry>
        </mxCell>
        <mxCell id="1JV9OjOV9Jat2uO-FX8t-8" value="" style="edgeStyle=orthogonalEdgeStyle;rounded=0;orthogonalLoop=1;jettySize=auto;html=1;fontSize=19;fontColor=default;" parent="1" source="1JV9OjOV9Jat2uO-FX8t-6" target="1JV9OjOV9Jat2uO-FX8t-7" edge="1">
          <mxGeometry relative="1" as="geometry" />
        </mxCell>
        <mxCell id="1JV9OjOV9Jat2uO-FX8t-6" value="&lt;span style=&quot;font-size: 19px;&quot;&gt;Login&lt;/span&gt;" style="rounded=1;whiteSpace=wrap;html=1;labelBackgroundColor=none;labelBorderColor=none;fontStyle=0;fillColor=#b0e3e6;strokeColor=#0e8088;fontSize=19;" parent="1" vertex="1">
          <mxGeometry x="1476" y="160" width="136" height="60" as="geometry" />
        </mxCell>
        <mxCell id="1JV9OjOV9Jat2uO-FX8t-10" value="" style="edgeStyle=orthogonalEdgeStyle;rounded=0;orthogonalLoop=1;jettySize=auto;html=1;fontSize=19;fontColor=default;" parent="1" source="1JV9OjOV9Jat2uO-FX8t-7" edge="1">
          <mxGeometry relative="1" as="geometry">
            <mxPoint x="1546" y="540" as="targetPoint" />
            <Array as="points">
              <mxPoint x="1546" y="540" />
              <mxPoint x="1546" y="540" />
            </Array>
          </mxGeometry>
        </mxCell>
        <mxCell id="GAt9rsMN1fzWW2gVmVyb-249" style="edgeStyle=orthogonalEdgeStyle;rounded=0;orthogonalLoop=1;jettySize=auto;html=1;exitX=1;exitY=0.5;exitDx=0;exitDy=0;fontSize=21;" parent="1" source="1JV9OjOV9Jat2uO-FX8t-7" edge="1">
          <mxGeometry relative="1" as="geometry">
            <mxPoint x="1550" y="250" as="targetPoint" />
            <Array as="points">
              <mxPoint x="1670" y="345" />
              <mxPoint x="1670" y="250" />
            </Array>
          </mxGeometry>
        </mxCell>
        <mxCell id="1JV9OjOV9Jat2uO-FX8t-7" value="check" style="rhombus;whiteSpace=wrap;html=1;fontSize=19;fillColor=#b0e3e6;strokeColor=#0e8088;rounded=1;labelBackgroundColor=none;labelBorderColor=none;fontStyle=0;" parent="1" vertex="1">
          <mxGeometry x="1472" y="290" width="144" height="110" as="geometry" />
        </mxCell>
        <mxCell id="GAt9rsMN1fzWW2gVmVyb-162" style="edgeStyle=orthogonalEdgeStyle;rounded=0;orthogonalLoop=1;jettySize=auto;html=1;exitX=0.5;exitY=1;exitDx=0;exitDy=0;" parent="1" edge="1">
          <mxGeometry relative="1" as="geometry">
            <mxPoint x="90" y="1046" as="targetPoint" />
            <mxPoint x="90" y="906.0000000000005" as="sourcePoint" />
          </mxGeometry>
        </mxCell>
        <mxCell id="1JV9OjOV9Jat2uO-FX8t-9" value="view profile" style="whiteSpace=wrap;html=1;fontSize=16;fillColor=#b0e3e6;strokeColor=#0e8088;rounded=1;labelBackgroundColor=none;labelBorderColor=none;fontStyle=0;" parent="1" vertex="1">
          <mxGeometry x="30" y="850" width="120" height="60" as="geometry" />
        </mxCell>
        <mxCell id="1JV9OjOV9Jat2uO-FX8t-11" value="" style="whiteSpace=wrap;html=1;fontSize=16;fillColor=#b0e3e6;strokeColor=#0e8088;rounded=1;labelBackgroundColor=none;labelBorderColor=none;fontStyle=0;" parent="1" vertex="1">
          <mxGeometry x="-260" y="678" width="4520" height="20" as="geometry" />
        </mxCell>
        <mxCell id="1JV9OjOV9Jat2uO-FX8t-13" value="" style="endArrow=classic;html=1;rounded=0;fontSize=16;fontColor=default;" parent="1" edge="1">
          <mxGeometry width="50" height="50" relative="1" as="geometry">
            <mxPoint x="96" y="770" as="sourcePoint" />
            <mxPoint x="96" y="847" as="targetPoint" />
          </mxGeometry>
        </mxCell>
        <mxCell id="OYrXC9NLMJ1WuIDrOlup-49" style="edgeStyle=orthogonalEdgeStyle;rounded=0;orthogonalLoop=1;jettySize=auto;html=1;exitX=0.5;exitY=1;exitDx=0;exitDy=0;" parent="1" source="1JV9OjOV9Jat2uO-FX8t-14" edge="1">
          <mxGeometry relative="1" as="geometry">
            <mxPoint x="-10" y="1330" as="targetPoint" />
          </mxGeometry>
        </mxCell>
        <mxCell id="1JV9OjOV9Jat2uO-FX8t-14" value="edit profile" style="whiteSpace=wrap;html=1;fontSize=16;fillColor=#b0e3e6;strokeColor=#0e8088;rounded=1;labelBackgroundColor=none;labelBorderColor=none;fontStyle=0;" parent="1" vertex="1">
          <mxGeometry x="28" y="1053" width="120" height="60" as="geometry" />
        </mxCell>
        <mxCell id="1JV9OjOV9Jat2uO-FX8t-15" value="" style="endArrow=classic;html=1;rounded=0;fontSize=16;fontColor=default;" parent="1" edge="1">
          <mxGeometry width="50" height="50" relative="1" as="geometry">
            <mxPoint x="600" y="698" as="sourcePoint" />
            <mxPoint x="600" y="768" as="targetPoint" />
          </mxGeometry>
        </mxCell>
        <mxCell id="1JV9OjOV9Jat2uO-FX8t-16" value="" style="whiteSpace=wrap;html=1;fontSize=16;fillColor=#b0e3e6;strokeColor=#0e8088;rounded=1;labelBackgroundColor=none;labelBorderColor=none;fontStyle=0;" parent="1" vertex="1">
          <mxGeometry x="400" y="768" width="2160" height="10" as="geometry" />
        </mxCell>
        <mxCell id="1JV9OjOV9Jat2uO-FX8t-17" value="" style="endArrow=classic;html=1;rounded=0;fontSize=16;fontColor=default;" parent="1" edge="1">
          <mxGeometry width="50" height="50" relative="1" as="geometry">
            <mxPoint x="545" y="778" as="sourcePoint" />
            <mxPoint x="545" y="848" as="targetPoint" />
          </mxGeometry>
        </mxCell>
        <mxCell id="1JV9OjOV9Jat2uO-FX8t-18" value="" style="endArrow=classic;html=1;rounded=0;fontSize=16;fontColor=default;" parent="1" edge="1">
          <mxGeometry width="50" height="50" relative="1" as="geometry">
            <mxPoint x="1668.5" y="778" as="sourcePoint" />
            <mxPoint x="1668.5" y="848" as="targetPoint" />
          </mxGeometry>
        </mxCell>
        <mxCell id="1JV9OjOV9Jat2uO-FX8t-19" value="" style="endArrow=classic;html=1;rounded=0;fontSize=16;fontColor=default;" parent="1" edge="1">
          <mxGeometry width="50" height="50" relative="1" as="geometry">
            <mxPoint x="2252" y="778" as="sourcePoint" />
            <mxPoint x="2252" y="848" as="targetPoint" />
          </mxGeometry>
        </mxCell>
        <mxCell id="GAt9rsMN1fzWW2gVmVyb-31" style="edgeStyle=orthogonalEdgeStyle;rounded=0;orthogonalLoop=1;jettySize=auto;html=1;exitX=0.5;exitY=1;exitDx=0;exitDy=0;" parent="1" source="1JV9OjOV9Jat2uO-FX8t-21" edge="1">
          <mxGeometry relative="1" as="geometry">
            <mxPoint x="485" y="1318" as="targetPoint" />
          </mxGeometry>
        </mxCell>
        <mxCell id="1JV9OjOV9Jat2uO-FX8t-21" value="Add doctor" style="whiteSpace=wrap;html=1;fontSize=16;fillColor=#b0e3e6;strokeColor=#0e8088;rounded=1;labelBackgroundColor=none;labelBorderColor=none;fontStyle=0;" parent="1" vertex="1">
          <mxGeometry x="425" y="978" width="120" height="60" as="geometry" />
        </mxCell>
        <mxCell id="GAt9rsMN1fzWW2gVmVyb-53" style="edgeStyle=orthogonalEdgeStyle;rounded=0;orthogonalLoop=1;jettySize=auto;html=1;exitX=0.5;exitY=1;exitDx=0;exitDy=0;entryX=0.337;entryY=-0.2;entryDx=0;entryDy=0;entryPerimeter=0;" parent="1" source="1JV9OjOV9Jat2uO-FX8t-22" edge="1">
          <mxGeometry relative="1" as="geometry">
            <mxPoint x="1675.4384999999997" y="966" as="targetPoint" />
          </mxGeometry>
        </mxCell>
        <mxCell id="1JV9OjOV9Jat2uO-FX8t-22" value="Add&amp;nbsp;Patient" style="whiteSpace=wrap;html=1;fontSize=16;fillColor=#b0e3e6;strokeColor=#0e8088;rounded=1;labelBackgroundColor=none;labelBorderColor=none;fontStyle=0;" parent="1" vertex="1">
          <mxGeometry x="1616" y="848" width="120" height="60" as="geometry" />
        </mxCell>
        <mxCell id="1JV9OjOV9Jat2uO-FX8t-23" value="Add&amp;nbsp;Pharmacist" style="whiteSpace=wrap;html=1;fontSize=16;fillColor=#b0e3e6;strokeColor=#0e8088;rounded=1;labelBackgroundColor=none;labelBorderColor=none;fontStyle=0;" parent="1" vertex="1">
          <mxGeometry x="2193" y="848" width="120" height="60" as="geometry" />
        </mxCell>
        <mxCell id="GAt9rsMN1fzWW2gVmVyb-1" value="" style="endArrow=classic;html=1;rounded=0;fontSize=16;fontColor=default;" parent="1" edge="1">
          <mxGeometry width="50" height="50" relative="1" as="geometry">
            <mxPoint x="3215.5" y="778" as="sourcePoint" />
            <mxPoint x="3215.5" y="848" as="targetPoint" />
          </mxGeometry>
        </mxCell>
        <mxCell id="GAt9rsMN1fzWW2gVmVyb-2" value="" style="endArrow=classic;html=1;rounded=0;fontSize=16;fontColor=default;" parent="1" edge="1">
          <mxGeometry width="50" height="50" relative="1" as="geometry">
            <mxPoint x="2719" y="778" as="sourcePoint" />
            <mxPoint x="2719" y="848" as="targetPoint" />
          </mxGeometry>
        </mxCell>
        <mxCell id="GAt9rsMN1fzWW2gVmVyb-3" value="Add&amp;nbsp;Analytics Specialist" style="whiteSpace=wrap;html=1;fontSize=16;fillColor=#b0e3e6;strokeColor=#0e8088;rounded=1;labelBackgroundColor=none;labelBorderColor=none;fontStyle=0;" parent="1" vertex="1">
          <mxGeometry x="2666" y="848" width="120" height="60" as="geometry" />
        </mxCell>
        <mxCell id="GAt9rsMN1fzWW2gVmVyb-4" value="Add Radiology Doctor" style="whiteSpace=wrap;html=1;fontSize=16;fillColor=#b0e3e6;strokeColor=#0e8088;rounded=1;labelBackgroundColor=none;labelBorderColor=none;fontStyle=0;" parent="1" vertex="1">
          <mxGeometry x="3161" y="850" width="120" height="60" as="geometry" />
        </mxCell>
        <mxCell id="GAt9rsMN1fzWW2gVmVyb-192" style="edgeStyle=orthogonalEdgeStyle;rounded=0;orthogonalLoop=1;jettySize=auto;html=1;exitX=0.5;exitY=1;exitDx=0;exitDy=0;" parent="1" source="GAt9rsMN1fzWW2gVmVyb-6" edge="1">
          <mxGeometry relative="1" as="geometry">
            <mxPoint x="2160" y="1478" as="targetPoint" />
          </mxGeometry>
        </mxCell>
        <mxCell id="GAt9rsMN1fzWW2gVmVyb-6" value="View&amp;nbsp;Medicines" style="whiteSpace=wrap;html=1;fontSize=16;fillColor=#b0e3e6;strokeColor=#0e8088;rounded=1;labelBackgroundColor=none;labelBorderColor=none;fontStyle=0;" parent="1" vertex="1">
          <mxGeometry x="2100" y="1048" width="120" height="60" as="geometry" />
        </mxCell>
        <mxCell id="GAt9rsMN1fzWW2gVmVyb-7" value="" style="endArrow=classic;html=1;rounded=0;fontSize=16;fontColor=default;entryX=0.5;entryY=0;entryDx=0;entryDy=0;" parent="1" target="GAt9rsMN1fzWW2gVmVyb-10" edge="1">
          <mxGeometry width="50" height="50" relative="1" as="geometry">
            <mxPoint x="1163" y="1398" as="sourcePoint" />
            <mxPoint x="1162.23" y="1463" as="targetPoint" />
          </mxGeometry>
        </mxCell>
        <mxCell id="GAt9rsMN1fzWW2gVmVyb-198" style="edgeStyle=orthogonalEdgeStyle;rounded=0;orthogonalLoop=1;jettySize=auto;html=1;exitX=0.5;exitY=1;exitDx=0;exitDy=0;" parent="1" source="GAt9rsMN1fzWW2gVmVyb-8" edge="1">
          <mxGeometry relative="1" as="geometry">
            <mxPoint x="2651" y="1478" as="targetPoint" />
          </mxGeometry>
        </mxCell>
        <mxCell id="GAt9rsMN1fzWW2gVmVyb-8" value=" View Medical Analysis" style="whiteSpace=wrap;html=1;fontSize=16;fillColor=#b0e3e6;strokeColor=#0e8088;rounded=1;labelBackgroundColor=none;labelBorderColor=none;fontStyle=0;" parent="1" vertex="1">
          <mxGeometry x="2590.5" y="1048" width="120" height="60" as="geometry" />
        </mxCell>
        <mxCell id="GAt9rsMN1fzWW2gVmVyb-10" value="Delete Doctor" style="whiteSpace=wrap;html=1;fontSize=16;fillColor=#b0e3e6;strokeColor=#0e8088;rounded=1;labelBackgroundColor=none;labelBorderColor=none;fontStyle=0;" parent="1" vertex="1">
          <mxGeometry x="1103" y="1473" width="120" height="60" as="geometry" />
        </mxCell>
        <mxCell id="GAt9rsMN1fzWW2gVmVyb-11" value="" style="endArrow=classic;html=1;rounded=0;fontSize=16;fontColor=default;" parent="1" edge="1">
          <mxGeometry width="50" height="50" relative="1" as="geometry">
            <mxPoint x="3851.5" y="780" as="sourcePoint" />
            <mxPoint x="3851.5" y="850" as="targetPoint" />
          </mxGeometry>
        </mxCell>
        <mxCell id="GAt9rsMN1fzWW2gVmVyb-12" value="Add&amp;nbsp;Accountant" style="whiteSpace=wrap;html=1;fontSize=16;fillColor=#b0e3e6;strokeColor=#0e8088;rounded=1;labelBackgroundColor=none;labelBorderColor=none;fontStyle=0;" parent="1" vertex="1">
          <mxGeometry x="3804" y="850" width="120" height="59" as="geometry" />
        </mxCell>
        <mxCell id="GAt9rsMN1fzWW2gVmVyb-15" value="" style="whiteSpace=wrap;html=1;fontSize=16;fillColor=#b0e3e6;strokeColor=#0e8088;rounded=1;labelBackgroundColor=none;labelBorderColor=none;fontStyle=0;" parent="1" vertex="1">
          <mxGeometry x="445" y="850" width="277" height="10" as="geometry" />
        </mxCell>
        <mxCell id="GAt9rsMN1fzWW2gVmVyb-16" value="" style="endArrow=classic;html=1;rounded=0;fontSize=16;fontColor=default;entryX=0.5;entryY=0;entryDx=0;entryDy=0;" parent="1" target="1JV9OjOV9Jat2uO-FX8t-21" edge="1">
          <mxGeometry width="50" height="50" relative="1" as="geometry">
            <mxPoint x="485" y="860" as="sourcePoint" />
            <mxPoint x="485" y="930" as="targetPoint" />
          </mxGeometry>
        </mxCell>
        <mxCell id="GAt9rsMN1fzWW2gVmVyb-17" value="" style="endArrow=classic;html=1;rounded=0;fontSize=16;fontColor=default;" parent="1" edge="1">
          <mxGeometry width="50" height="50" relative="1" as="geometry">
            <mxPoint x="705" y="860" as="sourcePoint" />
            <mxPoint x="705" y="930" as="targetPoint" />
          </mxGeometry>
        </mxCell>
        <mxCell id="GAt9rsMN1fzWW2gVmVyb-39" style="edgeStyle=orthogonalEdgeStyle;rounded=0;orthogonalLoop=1;jettySize=auto;html=1;" parent="1" source="GAt9rsMN1fzWW2gVmVyb-23" edge="1">
          <mxGeometry relative="1" as="geometry">
            <mxPoint x="695" y="1318" as="targetPoint" />
          </mxGeometry>
        </mxCell>
        <mxCell id="GAt9rsMN1fzWW2gVmVyb-23" value="" style="whiteSpace=wrap;html=1;fontSize=16;fillColor=#b0e3e6;strokeColor=#0e8088;rounded=1;labelBackgroundColor=none;labelBorderColor=none;fontStyle=0;" parent="1" vertex="1">
          <mxGeometry x="565" y="1238" width="260" height="10" as="geometry" />
        </mxCell>
        <mxCell id="GAt9rsMN1fzWW2gVmVyb-32" style="edgeStyle=orthogonalEdgeStyle;rounded=0;orthogonalLoop=1;jettySize=auto;html=1;exitX=0.5;exitY=1;exitDx=0;exitDy=0;" parent="1" source="GAt9rsMN1fzWW2gVmVyb-26" edge="1">
          <mxGeometry relative="1" as="geometry">
            <mxPoint x="706" y="1238" as="targetPoint" />
          </mxGeometry>
        </mxCell>
        <mxCell id="GAt9rsMN1fzWW2gVmVyb-26" value="Add doctor" style="whiteSpace=wrap;html=1;fontSize=16;fillColor=#b0e3e6;strokeColor=#0e8088;rounded=1;labelBackgroundColor=none;labelBorderColor=none;fontStyle=0;" parent="1" vertex="1">
          <mxGeometry x="646" y="1108" width="120" height="60" as="geometry" />
        </mxCell>
        <mxCell id="GAt9rsMN1fzWW2gVmVyb-28" value="" style="whiteSpace=wrap;html=1;fontSize=16;fillColor=#b0e3e6;strokeColor=#0e8088;rounded=1;labelBackgroundColor=none;labelBorderColor=none;fontStyle=0;" parent="1" vertex="1">
          <mxGeometry x="160" y="1325" width="1080" height="10" as="geometry" />
        </mxCell>
        <mxCell id="GAt9rsMN1fzWW2gVmVyb-33" value="View Doctor" style="whiteSpace=wrap;html=1;fontSize=16;fillColor=#b0e3e6;strokeColor=#0e8088;rounded=1;labelBackgroundColor=none;labelBorderColor=none;fontStyle=0;" parent="1" vertex="1">
          <mxGeometry x="943" y="1473" width="120" height="60" as="geometry" />
        </mxCell>
        <mxCell id="GAt9rsMN1fzWW2gVmVyb-40" value="" style="whiteSpace=wrap;html=1;fontSize=16;fillColor=#b0e3e6;strokeColor=#0e8088;rounded=1;labelBackgroundColor=none;labelBorderColor=none;fontStyle=0;" parent="1" vertex="1">
          <mxGeometry x="2607" y="768" width="1593" height="10" as="geometry" />
        </mxCell>
        <mxCell id="GAt9rsMN1fzWW2gVmVyb-43" value="Add&amp;nbsp;Specialization" style="whiteSpace=wrap;html=1;fontSize=16;fillColor=#b0e3e6;strokeColor=#0e8088;rounded=1;labelBackgroundColor=none;labelBorderColor=none;fontStyle=0;" parent="1" vertex="1">
          <mxGeometry x="170" y="1408" width="137" height="59" as="geometry" />
        </mxCell>
        <mxCell id="GAt9rsMN1fzWW2gVmVyb-44" value="Add&amp;nbsp;Ambulance" style="whiteSpace=wrap;html=1;fontSize=16;fillColor=#b0e3e6;strokeColor=#0e8088;rounded=1;labelBackgroundColor=none;labelBorderColor=none;fontStyle=0;" parent="1" vertex="1">
          <mxGeometry x="586" y="1407" width="140" height="61" as="geometry" />
        </mxCell>
        <mxCell id="GAt9rsMN1fzWW2gVmVyb-168" style="edgeStyle=orthogonalEdgeStyle;rounded=0;orthogonalLoop=1;jettySize=auto;html=1;exitX=0.75;exitY=1;exitDx=0;exitDy=0;entryX=0.819;entryY=-0.571;entryDx=0;entryDy=0;entryPerimeter=0;" parent="1" source="GAt9rsMN1fzWW2gVmVyb-49" target="GAt9rsMN1fzWW2gVmVyb-167" edge="1">
          <mxGeometry relative="1" as="geometry" />
        </mxCell>
        <mxCell id="GAt9rsMN1fzWW2gVmVyb-49" value="view Appointments" style="whiteSpace=wrap;html=1;fontSize=16;fillColor=#b0e3e6;strokeColor=#0e8088;rounded=1;labelBackgroundColor=none;labelBorderColor=none;fontStyle=0;" parent="1" vertex="1">
          <mxGeometry x="1862" y="1104" width="120" height="60" as="geometry" />
        </mxCell>
        <mxCell id="GAt9rsMN1fzWW2gVmVyb-50" value="" style="edgeStyle=orthogonalEdgeStyle;rounded=0;orthogonalLoop=1;jettySize=auto;html=1;" parent="1" edge="1">
          <mxGeometry relative="1" as="geometry">
            <mxPoint x="1695" y="973" as="sourcePoint" />
            <mxPoint x="1695" y="1104" as="targetPoint" />
          </mxGeometry>
        </mxCell>
        <mxCell id="GAt9rsMN1fzWW2gVmVyb-51" value="" style="whiteSpace=wrap;html=1;fontSize=16;fillColor=#b0e3e6;strokeColor=#0e8088;rounded=1;labelBackgroundColor=none;labelBorderColor=none;fontStyle=0;" parent="1" vertex="1">
          <mxGeometry x="1235" y="968" width="740" height="10" as="geometry" />
        </mxCell>
        <mxCell id="GAt9rsMN1fzWW2gVmVyb-52" value="Add&amp;nbsp;Insurance" style="whiteSpace=wrap;html=1;fontSize=16;fillColor=#b0e3e6;strokeColor=#0e8088;rounded=1;labelBackgroundColor=none;labelBorderColor=none;fontStyle=0;" parent="1" vertex="1">
          <mxGeometry x="1639.5" y="1104" width="120" height="60" as="geometry" />
        </mxCell>
        <mxCell id="GAt9rsMN1fzWW2gVmVyb-54" value="" style="edgeStyle=orthogonalEdgeStyle;rounded=0;orthogonalLoop=1;jettySize=auto;html=1;" parent="1" edge="1">
          <mxGeometry relative="1" as="geometry">
            <mxPoint x="1912" y="976.9999999999998" as="sourcePoint" />
            <mxPoint x="1912" y="1108" as="targetPoint" />
          </mxGeometry>
        </mxCell>
        <mxCell id="GAt9rsMN1fzWW2gVmVyb-55" value="Delete Pharmacist" style="whiteSpace=wrap;html=1;fontSize=16;fillColor=#b0e3e6;strokeColor=#0e8088;rounded=1;labelBackgroundColor=none;labelBorderColor=none;fontStyle=0;" parent="1" vertex="1">
          <mxGeometry x="2388" y="1179" width="120" height="60" as="geometry" />
        </mxCell>
        <mxCell id="GAt9rsMN1fzWW2gVmVyb-56" value="" style="edgeStyle=orthogonalEdgeStyle;rounded=0;orthogonalLoop=1;jettySize=auto;html=1;" parent="1" edge="1">
          <mxGeometry relative="1" as="geometry">
            <mxPoint x="2303" y="1047.9999999999998" as="sourcePoint" />
            <mxPoint x="2303" y="1179" as="targetPoint" />
          </mxGeometry>
        </mxCell>
        <mxCell id="GAt9rsMN1fzWW2gVmVyb-57" value="" style="whiteSpace=wrap;html=1;fontSize=16;fillColor=#b0e3e6;strokeColor=#0e8088;rounded=1;labelBackgroundColor=none;labelBorderColor=none;fontStyle=0;" parent="1" vertex="1">
          <mxGeometry x="2100" y="970" width="410" height="10" as="geometry" />
        </mxCell>
        <mxCell id="GAt9rsMN1fzWW2gVmVyb-58" value="View Pharmacist" style="whiteSpace=wrap;html=1;fontSize=16;fillColor=#b0e3e6;strokeColor=#0e8088;rounded=1;labelBackgroundColor=none;labelBorderColor=none;fontStyle=0;" parent="1" vertex="1">
          <mxGeometry x="2247.5" y="1179" width="120" height="60" as="geometry" />
        </mxCell>
        <mxCell id="GAt9rsMN1fzWW2gVmVyb-59" value="" style="edgeStyle=orthogonalEdgeStyle;rounded=0;orthogonalLoop=1;jettySize=auto;html=1;" parent="1" edge="1">
          <mxGeometry relative="1" as="geometry">
            <mxPoint x="2438" y="1051.9999999999998" as="sourcePoint" />
            <mxPoint x="2438" y="1182.9999999999998" as="targetPoint" />
          </mxGeometry>
        </mxCell>
        <mxCell id="GAt9rsMN1fzWW2gVmVyb-203" style="edgeStyle=orthogonalEdgeStyle;rounded=0;orthogonalLoop=1;jettySize=auto;html=1;exitX=0.5;exitY=1;exitDx=0;exitDy=0;entryX=0.704;entryY=-0.256;entryDx=0;entryDy=0;entryPerimeter=0;" parent="1" source="GAt9rsMN1fzWW2gVmVyb-63" target="GAt9rsMN1fzWW2gVmVyb-195" edge="1">
          <mxGeometry relative="1" as="geometry">
            <mxPoint x="2900.142857142858" y="1278" as="targetPoint" />
            <Array as="points">
              <mxPoint x="2911" y="1286" />
              <mxPoint x="2904" y="1286" />
            </Array>
          </mxGeometry>
        </mxCell>
        <mxCell id="GAt9rsMN1fzWW2gVmVyb-63" value="Delete Analytics Specialist" style="whiteSpace=wrap;html=1;fontSize=16;fillColor=#b0e3e6;strokeColor=#0e8088;rounded=1;labelBackgroundColor=none;labelBorderColor=none;fontStyle=0;" parent="1" vertex="1">
          <mxGeometry x="2851" y="1182" width="120" height="60" as="geometry" />
        </mxCell>
        <mxCell id="GAt9rsMN1fzWW2gVmVyb-64" value="" style="edgeStyle=orthogonalEdgeStyle;rounded=0;orthogonalLoop=1;jettySize=auto;html=1;" parent="1" edge="1">
          <mxGeometry relative="1" as="geometry">
            <mxPoint x="2766" y="1050.9999999999998" as="sourcePoint" />
            <mxPoint x="2766" y="1182" as="targetPoint" />
          </mxGeometry>
        </mxCell>
        <mxCell id="GAt9rsMN1fzWW2gVmVyb-65" value="" style="whiteSpace=wrap;html=1;fontSize=16;fillColor=#b0e3e6;strokeColor=#0e8088;rounded=1;labelBackgroundColor=none;labelBorderColor=none;fontStyle=0;" parent="1" vertex="1">
          <mxGeometry x="2612.5" y="970" width="367.5" height="10" as="geometry" />
        </mxCell>
        <mxCell id="GAt9rsMN1fzWW2gVmVyb-200" style="edgeStyle=orthogonalEdgeStyle;rounded=0;orthogonalLoop=1;jettySize=auto;html=1;exitX=0.5;exitY=1;exitDx=0;exitDy=0;" parent="1" source="GAt9rsMN1fzWW2gVmVyb-66" edge="1">
          <mxGeometry relative="1" as="geometry">
            <mxPoint x="2771" y="1328" as="targetPoint" />
          </mxGeometry>
        </mxCell>
        <mxCell id="GAt9rsMN1fzWW2gVmVyb-66" value="View Analytics Specialist" style="whiteSpace=wrap;html=1;fontSize=16;fillColor=#b0e3e6;strokeColor=#0e8088;rounded=1;labelBackgroundColor=none;labelBorderColor=none;fontStyle=0;" parent="1" vertex="1">
          <mxGeometry x="2710.5" y="1182" width="120" height="60" as="geometry" />
        </mxCell>
        <mxCell id="GAt9rsMN1fzWW2gVmVyb-67" value="" style="edgeStyle=orthogonalEdgeStyle;rounded=0;orthogonalLoop=1;jettySize=auto;html=1;" parent="1" edge="1">
          <mxGeometry relative="1" as="geometry">
            <mxPoint x="2901" y="1054.9999999999998" as="sourcePoint" />
            <mxPoint x="2901" y="1185.9999999999998" as="targetPoint" />
          </mxGeometry>
        </mxCell>
        <mxCell id="GAt9rsMN1fzWW2gVmVyb-69" value="Delete Radiology Doctor" style="whiteSpace=wrap;html=1;fontSize=16;fillColor=#b0e3e6;strokeColor=#0e8088;rounded=1;labelBackgroundColor=none;labelBorderColor=none;fontStyle=0;" parent="1" vertex="1">
          <mxGeometry x="3373" y="1184" width="125" height="61" as="geometry" />
        </mxCell>
        <mxCell id="GAt9rsMN1fzWW2gVmVyb-70" value="" style="edgeStyle=orthogonalEdgeStyle;rounded=0;orthogonalLoop=1;jettySize=auto;html=1;" parent="1" edge="1">
          <mxGeometry relative="1" as="geometry">
            <mxPoint x="3288" y="1052.9999999999998" as="sourcePoint" />
            <mxPoint x="3288" y="1184" as="targetPoint" />
          </mxGeometry>
        </mxCell>
        <mxCell id="GAt9rsMN1fzWW2gVmVyb-71" value="" style="whiteSpace=wrap;html=1;fontSize=16;fillColor=#b0e3e6;strokeColor=#0e8088;rounded=1;labelBackgroundColor=none;labelBorderColor=none;fontStyle=0;" parent="1" vertex="1">
          <mxGeometry x="3108.5" y="971" width="375.5" height="10" as="geometry" />
        </mxCell>
        <mxCell id="GAt9rsMN1fzWW2gVmVyb-72" value="View Radiology Doctor" style="whiteSpace=wrap;html=1;fontSize=16;fillColor=#b0e3e6;strokeColor=#0e8088;rounded=1;labelBackgroundColor=none;labelBorderColor=none;fontStyle=0;" parent="1" vertex="1">
          <mxGeometry x="3232.5" y="1184" width="120" height="60" as="geometry" />
        </mxCell>
        <mxCell id="GAt9rsMN1fzWW2gVmVyb-73" value="" style="edgeStyle=orthogonalEdgeStyle;rounded=0;orthogonalLoop=1;jettySize=auto;html=1;" parent="1" edge="1">
          <mxGeometry relative="1" as="geometry">
            <mxPoint x="3423" y="1056.9999999999998" as="sourcePoint" />
            <mxPoint x="3423" y="1187.9999999999998" as="targetPoint" />
          </mxGeometry>
        </mxCell>
        <mxCell id="GAt9rsMN1fzWW2gVmVyb-75" value="Delete Accountant" style="whiteSpace=wrap;html=1;fontSize=16;fillColor=#b0e3e6;strokeColor=#0e8088;rounded=1;labelBackgroundColor=none;labelBorderColor=none;fontStyle=0;" parent="1" vertex="1">
          <mxGeometry x="4046" y="1189" width="120" height="60" as="geometry" />
        </mxCell>
        <mxCell id="GAt9rsMN1fzWW2gVmVyb-76" value="" style="edgeStyle=orthogonalEdgeStyle;rounded=0;orthogonalLoop=1;jettySize=auto;html=1;" parent="1" edge="1">
          <mxGeometry relative="1" as="geometry">
            <mxPoint x="3961" y="1058" as="sourcePoint" />
            <mxPoint x="3961" y="1189" as="targetPoint" />
          </mxGeometry>
        </mxCell>
        <mxCell id="GAt9rsMN1fzWW2gVmVyb-77" value="" style="whiteSpace=wrap;html=1;fontSize=16;fillColor=#b0e3e6;strokeColor=#0e8088;rounded=1;labelBackgroundColor=none;labelBorderColor=none;fontStyle=0;" parent="1" vertex="1">
          <mxGeometry x="3747.5" y="971" width="383.5" height="10" as="geometry" />
        </mxCell>
        <mxCell id="GAt9rsMN1fzWW2gVmVyb-78" value="View Accountant" style="whiteSpace=wrap;html=1;fontSize=16;fillColor=#b0e3e6;strokeColor=#0e8088;rounded=1;labelBackgroundColor=none;labelBorderColor=none;fontStyle=0;" parent="1" vertex="1">
          <mxGeometry x="3905.5" y="1189" width="126.5" height="61" as="geometry" />
        </mxCell>
        <mxCell id="GAt9rsMN1fzWW2gVmVyb-79" value="" style="edgeStyle=orthogonalEdgeStyle;rounded=0;orthogonalLoop=1;jettySize=auto;html=1;" parent="1" edge="1">
          <mxGeometry relative="1" as="geometry">
            <mxPoint x="4096" y="1061.9999999999998" as="sourcePoint" />
            <mxPoint x="4096" y="1193" as="targetPoint" />
          </mxGeometry>
        </mxCell>
        <mxCell id="GAt9rsMN1fzWW2gVmVyb-80" value="" style="whiteSpace=wrap;html=1;fontSize=16;fillColor=#b0e3e6;strokeColor=#0e8088;rounded=1;labelBackgroundColor=none;labelBorderColor=none;fontStyle=0;" parent="1" vertex="1">
          <mxGeometry x="934" y="1398" width="260" height="10" as="geometry" />
        </mxCell>
        <mxCell id="GAt9rsMN1fzWW2gVmVyb-81" value="" style="endArrow=classic;html=1;rounded=0;fontSize=16;fontColor=default;entryX=0.5;entryY=0;entryDx=0;entryDy=0;" parent="1" edge="1">
          <mxGeometry width="50" height="50" relative="1" as="geometry">
            <mxPoint x="1003" y="1408" as="sourcePoint" />
            <mxPoint x="1003" y="1478" as="targetPoint" />
          </mxGeometry>
        </mxCell>
        <mxCell id="GAt9rsMN1fzWW2gVmVyb-82" value="" style="endArrow=classic;html=1;rounded=0;fontSize=16;fontColor=default;entryX=0.5;entryY=0;entryDx=0;entryDy=0;" parent="1" edge="1">
          <mxGeometry width="50" height="50" relative="1" as="geometry">
            <mxPoint x="1080" y="1338" as="sourcePoint" />
            <mxPoint x="1080" y="1398" as="targetPoint" />
          </mxGeometry>
        </mxCell>
        <mxCell id="GAt9rsMN1fzWW2gVmVyb-83" value="" style="endArrow=classic;html=1;rounded=0;fontSize=16;fontColor=default;entryX=0.5;entryY=0;entryDx=0;entryDy=0;" parent="1" edge="1">
          <mxGeometry width="50" height="50" relative="1" as="geometry">
            <mxPoint x="237.73" y="1338" as="sourcePoint" />
            <mxPoint x="237.73" y="1407.9999999999998" as="targetPoint" />
          </mxGeometry>
        </mxCell>
        <mxCell id="GAt9rsMN1fzWW2gVmVyb-87" value="" style="endArrow=classic;html=1;rounded=0;fontSize=16;fontColor=default;entryX=0.437;entryY=0.009;entryDx=0;entryDy=0;entryPerimeter=0;" parent="1" target="GAt9rsMN1fzWW2gVmVyb-44" edge="1">
          <mxGeometry width="50" height="50" relative="1" as="geometry">
            <mxPoint x="646" y="1338" as="sourcePoint" />
            <mxPoint x="646" y="1398" as="targetPoint" />
          </mxGeometry>
        </mxCell>
        <mxCell id="GAt9rsMN1fzWW2gVmVyb-88" value="" style="endArrow=classic;html=1;rounded=0;fontSize=16;fontColor=default;entryX=0.5;entryY=0;entryDx=0;entryDy=0;exitX=0.529;exitY=0.7;exitDx=0;exitDy=0;exitPerimeter=0;" parent="1" source="GAt9rsMN1fzWW2gVmVyb-91" target="GAt9rsMN1fzWW2gVmVyb-89" edge="1">
          <mxGeometry width="50" height="50" relative="1" as="geometry">
            <mxPoint x="300" y="1548" as="sourcePoint" />
            <mxPoint x="330.23" y="1596" as="targetPoint" />
          </mxGeometry>
        </mxCell>
        <mxCell id="GAt9rsMN1fzWW2gVmVyb-89" value="Delete Specialization" style="whiteSpace=wrap;html=1;fontSize=16;fillColor=#b0e3e6;strokeColor=#0e8088;rounded=1;labelBackgroundColor=none;labelBorderColor=none;fontStyle=0;" parent="1" vertex="1">
          <mxGeometry x="242" y="1605" width="120" height="60" as="geometry" />
        </mxCell>
        <mxCell id="GAt9rsMN1fzWW2gVmVyb-90" value="View Specialization" style="whiteSpace=wrap;html=1;fontSize=16;fillColor=#b0e3e6;strokeColor=#0e8088;rounded=1;labelBackgroundColor=none;labelBorderColor=none;fontStyle=0;" parent="1" vertex="1">
          <mxGeometry x="87" y="1606" width="120" height="60" as="geometry" />
        </mxCell>
        <mxCell id="GAt9rsMN1fzWW2gVmVyb-91" value="" style="whiteSpace=wrap;html=1;fontSize=16;fillColor=#b0e3e6;strokeColor=#0e8088;rounded=1;labelBackgroundColor=none;labelBorderColor=none;fontStyle=0;" parent="1" vertex="1">
          <mxGeometry x="102" y="1531" width="378" height="10" as="geometry" />
        </mxCell>
        <mxCell id="GAt9rsMN1fzWW2gVmVyb-92" value="" style="endArrow=classic;html=1;rounded=0;fontSize=16;fontColor=default;entryX=0.5;entryY=0;entryDx=0;entryDy=0;" parent="1" edge="1">
          <mxGeometry width="50" height="50" relative="1" as="geometry">
            <mxPoint x="147" y="1540.9999999999998" as="sourcePoint" />
            <mxPoint x="147" y="1611" as="targetPoint" />
          </mxGeometry>
        </mxCell>
        <mxCell id="GAt9rsMN1fzWW2gVmVyb-93" value="" style="endArrow=classic;html=1;rounded=0;fontSize=16;fontColor=default;entryX=0.5;entryY=0;entryDx=0;entryDy=0;exitX=0.529;exitY=0.7;exitDx=0;exitDy=0;exitPerimeter=0;" parent="1" target="GAt9rsMN1fzWW2gVmVyb-94" edge="1">
          <mxGeometry width="50" height="50" relative="1" as="geometry">
            <mxPoint x="438.962" y="1541" as="sourcePoint" />
            <mxPoint x="467.23" y="1599" as="targetPoint" />
          </mxGeometry>
        </mxCell>
        <mxCell id="GAt9rsMN1fzWW2gVmVyb-94" value="Update Specialization" style="whiteSpace=wrap;html=1;fontSize=16;fillColor=#b0e3e6;strokeColor=#0e8088;rounded=1;labelBackgroundColor=none;labelBorderColor=none;fontStyle=0;" parent="1" vertex="1">
          <mxGeometry x="379" y="1608" width="120" height="60" as="geometry" />
        </mxCell>
        <mxCell id="GAt9rsMN1fzWW2gVmVyb-97" value="" style="endArrow=classic;html=1;rounded=0;fontSize=16;fontColor=default;exitX=0.529;exitY=0.7;exitDx=0;exitDy=0;exitPerimeter=0;" parent="1" edge="1">
          <mxGeometry width="50" height="50" relative="1" as="geometry">
            <mxPoint x="237.73199999999997" y="1468" as="sourcePoint" />
            <mxPoint x="238" y="1528" as="targetPoint" />
          </mxGeometry>
        </mxCell>
        <mxCell id="GAt9rsMN1fzWW2gVmVyb-98" value="" style="endArrow=classic;html=1;rounded=0;fontSize=16;fontColor=default;entryX=0.5;entryY=0;entryDx=0;entryDy=0;exitX=0.529;exitY=0.7;exitDx=0;exitDy=0;exitPerimeter=0;" parent="1" source="GAt9rsMN1fzWW2gVmVyb-101" target="GAt9rsMN1fzWW2gVmVyb-99" edge="1">
          <mxGeometry width="50" height="50" relative="1" as="geometry">
            <mxPoint x="737" y="1552" as="sourcePoint" />
            <mxPoint x="767.23" y="1600" as="targetPoint" />
          </mxGeometry>
        </mxCell>
        <mxCell id="GAt9rsMN1fzWW2gVmVyb-99" value="Delete Ambulance" style="whiteSpace=wrap;html=1;fontSize=16;fillColor=#b0e3e6;strokeColor=#0e8088;rounded=1;labelBackgroundColor=none;labelBorderColor=none;fontStyle=0;" parent="1" vertex="1">
          <mxGeometry x="679" y="1609" width="120" height="60" as="geometry" />
        </mxCell>
        <mxCell id="GAt9rsMN1fzWW2gVmVyb-100" value="View Ambulance" style="whiteSpace=wrap;html=1;fontSize=16;fillColor=#b0e3e6;strokeColor=#0e8088;rounded=1;labelBackgroundColor=none;labelBorderColor=none;fontStyle=0;" parent="1" vertex="1">
          <mxGeometry x="524" y="1610" width="126" height="58" as="geometry" />
        </mxCell>
        <mxCell id="GAt9rsMN1fzWW2gVmVyb-101" value="" style="whiteSpace=wrap;html=1;fontSize=16;fillColor=#b0e3e6;strokeColor=#0e8088;rounded=1;labelBackgroundColor=none;labelBorderColor=none;fontStyle=0;" parent="1" vertex="1">
          <mxGeometry x="539" y="1535" width="378" height="10" as="geometry" />
        </mxCell>
        <mxCell id="GAt9rsMN1fzWW2gVmVyb-102" value="" style="endArrow=classic;html=1;rounded=0;fontSize=16;fontColor=default;entryX=0.5;entryY=0;entryDx=0;entryDy=0;" parent="1" edge="1">
          <mxGeometry width="50" height="50" relative="1" as="geometry">
            <mxPoint x="584" y="1545" as="sourcePoint" />
            <mxPoint x="584" y="1615" as="targetPoint" />
          </mxGeometry>
        </mxCell>
        <mxCell id="GAt9rsMN1fzWW2gVmVyb-103" value="" style="endArrow=classic;html=1;rounded=0;fontSize=16;fontColor=default;entryX=0.5;entryY=0;entryDx=0;entryDy=0;exitX=0.529;exitY=0.7;exitDx=0;exitDy=0;exitPerimeter=0;" parent="1" target="GAt9rsMN1fzWW2gVmVyb-104" edge="1">
          <mxGeometry width="50" height="50" relative="1" as="geometry">
            <mxPoint x="875.962" y="1545" as="sourcePoint" />
            <mxPoint x="904.23" y="1603" as="targetPoint" />
          </mxGeometry>
        </mxCell>
        <mxCell id="GAt9rsMN1fzWW2gVmVyb-104" value="Update Ambulance" style="whiteSpace=wrap;html=1;fontSize=16;fillColor=#b0e3e6;strokeColor=#0e8088;rounded=1;labelBackgroundColor=none;labelBorderColor=none;fontStyle=0;" parent="1" vertex="1">
          <mxGeometry x="816" y="1612" width="120" height="60" as="geometry" />
        </mxCell>
        <mxCell id="GAt9rsMN1fzWW2gVmVyb-105" value="" style="endArrow=classic;html=1;rounded=0;fontSize=16;fontColor=default;exitX=0.529;exitY=0.7;exitDx=0;exitDy=0;exitPerimeter=0;" parent="1" edge="1">
          <mxGeometry width="50" height="50" relative="1" as="geometry">
            <mxPoint x="674.732" y="1472" as="sourcePoint" />
            <mxPoint x="675" y="1532" as="targetPoint" />
          </mxGeometry>
        </mxCell>
        <mxCell id="GAt9rsMN1fzWW2gVmVyb-106" value="" style="endArrow=classic;html=1;rounded=0;fontSize=16;fontColor=default;entryX=0.5;entryY=0;entryDx=0;entryDy=0;" parent="1" target="GAt9rsMN1fzWW2gVmVyb-107" edge="1">
          <mxGeometry width="50" height="50" relative="1" as="geometry">
            <mxPoint x="1474" y="1033" as="sourcePoint" />
            <mxPoint x="1473.23" y="1098" as="targetPoint" />
          </mxGeometry>
        </mxCell>
        <mxCell id="GAt9rsMN1fzWW2gVmVyb-107" value="Delete Patient" style="whiteSpace=wrap;html=1;fontSize=16;fillColor=#b0e3e6;strokeColor=#0e8088;rounded=1;labelBackgroundColor=none;labelBorderColor=none;fontStyle=0;" parent="1" vertex="1">
          <mxGeometry x="1414" y="1108" width="120" height="60" as="geometry" />
        </mxCell>
        <mxCell id="GAt9rsMN1fzWW2gVmVyb-108" value="View Patient" style="whiteSpace=wrap;html=1;fontSize=16;fillColor=#b0e3e6;strokeColor=#0e8088;rounded=1;labelBackgroundColor=none;labelBorderColor=none;fontStyle=0;" parent="1" vertex="1">
          <mxGeometry x="1254" y="1108" width="120" height="60" as="geometry" />
        </mxCell>
        <mxCell id="GAt9rsMN1fzWW2gVmVyb-109" value="" style="whiteSpace=wrap;html=1;fontSize=16;fillColor=#b0e3e6;strokeColor=#0e8088;rounded=1;labelBackgroundColor=none;labelBorderColor=none;fontStyle=0;" parent="1" vertex="1">
          <mxGeometry x="1245" y="1033" width="260" height="10" as="geometry" />
        </mxCell>
        <mxCell id="GAt9rsMN1fzWW2gVmVyb-110" value="" style="endArrow=classic;html=1;rounded=0;fontSize=16;fontColor=default;entryX=0.5;entryY=0;entryDx=0;entryDy=0;" parent="1" edge="1">
          <mxGeometry width="50" height="50" relative="1" as="geometry">
            <mxPoint x="1314" y="1043" as="sourcePoint" />
            <mxPoint x="1314" y="1113" as="targetPoint" />
          </mxGeometry>
        </mxCell>
        <mxCell id="GAt9rsMN1fzWW2gVmVyb-111" value="" style="endArrow=classic;html=1;rounded=0;fontSize=16;fontColor=default;entryX=0.5;entryY=0;entryDx=0;entryDy=0;" parent="1" edge="1">
          <mxGeometry width="50" height="50" relative="1" as="geometry">
            <mxPoint x="1371" y="973" as="sourcePoint" />
            <mxPoint x="1371" y="1033" as="targetPoint" />
          </mxGeometry>
        </mxCell>
        <mxCell id="GAt9rsMN1fzWW2gVmVyb-112" value="" style="endArrow=classic;html=1;rounded=0;fontSize=16;fontColor=default;entryX=0.5;entryY=0;entryDx=0;entryDy=0;exitX=0.529;exitY=0.7;exitDx=0;exitDy=0;exitPerimeter=0;" parent="1" source="GAt9rsMN1fzWW2gVmVyb-115" target="GAt9rsMN1fzWW2gVmVyb-113" edge="1">
          <mxGeometry width="50" height="50" relative="1" as="geometry">
            <mxPoint x="1716" y="1272" as="sourcePoint" />
            <mxPoint x="1746.23" y="1320" as="targetPoint" />
          </mxGeometry>
        </mxCell>
        <mxCell id="GAt9rsMN1fzWW2gVmVyb-113" value="Delete Insurance" style="whiteSpace=wrap;html=1;fontSize=16;fillColor=#b0e3e6;strokeColor=#0e8088;rounded=1;labelBackgroundColor=none;labelBorderColor=none;fontStyle=0;" parent="1" vertex="1">
          <mxGeometry x="1658" y="1329" width="120" height="60" as="geometry" />
        </mxCell>
        <mxCell id="GAt9rsMN1fzWW2gVmVyb-114" value="View Insurance" style="whiteSpace=wrap;html=1;fontSize=16;fillColor=#b0e3e6;strokeColor=#0e8088;rounded=1;labelBackgroundColor=none;labelBorderColor=none;fontStyle=0;" parent="1" vertex="1">
          <mxGeometry x="1503" y="1330" width="126" height="58" as="geometry" />
        </mxCell>
        <mxCell id="GAt9rsMN1fzWW2gVmVyb-115" value="" style="whiteSpace=wrap;html=1;fontSize=16;fillColor=#b0e3e6;strokeColor=#0e8088;rounded=1;labelBackgroundColor=none;labelBorderColor=none;fontStyle=0;" parent="1" vertex="1">
          <mxGeometry x="1518" y="1255" width="378" height="10" as="geometry" />
        </mxCell>
        <mxCell id="GAt9rsMN1fzWW2gVmVyb-116" value="" style="endArrow=classic;html=1;rounded=0;fontSize=16;fontColor=default;entryX=0.5;entryY=0;entryDx=0;entryDy=0;" parent="1" edge="1">
          <mxGeometry width="50" height="50" relative="1" as="geometry">
            <mxPoint x="1563" y="1265" as="sourcePoint" />
            <mxPoint x="1563" y="1335" as="targetPoint" />
          </mxGeometry>
        </mxCell>
        <mxCell id="GAt9rsMN1fzWW2gVmVyb-117" value="" style="endArrow=classic;html=1;rounded=0;fontSize=16;fontColor=default;entryX=0.5;entryY=0;entryDx=0;entryDy=0;exitX=0.529;exitY=0.7;exitDx=0;exitDy=0;exitPerimeter=0;" parent="1" target="GAt9rsMN1fzWW2gVmVyb-118" edge="1">
          <mxGeometry width="50" height="50" relative="1" as="geometry">
            <mxPoint x="1854.962" y="1265" as="sourcePoint" />
            <mxPoint x="1883.23" y="1323" as="targetPoint" />
          </mxGeometry>
        </mxCell>
        <mxCell id="GAt9rsMN1fzWW2gVmVyb-118" value="Update Insurance" style="whiteSpace=wrap;html=1;fontSize=16;fillColor=#b0e3e6;strokeColor=#0e8088;rounded=1;labelBackgroundColor=none;labelBorderColor=none;fontStyle=0;" parent="1" vertex="1">
          <mxGeometry x="1795" y="1332" width="120" height="60" as="geometry" />
        </mxCell>
        <mxCell id="GAt9rsMN1fzWW2gVmVyb-121" value="" style="edgeStyle=orthogonalEdgeStyle;rounded=0;orthogonalLoop=1;jettySize=auto;html=1;entryX=0.479;entryY=0.3;entryDx=0;entryDy=0;entryPerimeter=0;" parent="1" target="GAt9rsMN1fzWW2gVmVyb-115" edge="1">
          <mxGeometry relative="1" as="geometry">
            <mxPoint x="1698.59" y="1164" as="sourcePoint" />
            <mxPoint x="1699" y="1238" as="targetPoint" />
            <Array as="points" />
          </mxGeometry>
        </mxCell>
        <mxCell id="GAt9rsMN1fzWW2gVmVyb-122" value="" style="whiteSpace=wrap;html=1;fontSize=16;fillColor=#b0e3e6;strokeColor=#0e8088;rounded=1;labelBackgroundColor=none;labelBorderColor=none;fontStyle=0;" parent="1" vertex="1">
          <mxGeometry x="2254.5" y="1034" width="232.5" height="10" as="geometry" />
        </mxCell>
        <mxCell id="GAt9rsMN1fzWW2gVmVyb-123" value="" style="endArrow=classic;html=1;rounded=0;fontSize=16;fontColor=default;entryX=0.408;entryY=0.164;entryDx=0;entryDy=0;entryPerimeter=0;" parent="1" target="GAt9rsMN1fzWW2gVmVyb-122" edge="1">
          <mxGeometry width="50" height="50" relative="1" as="geometry">
            <mxPoint x="2349.9999999999995" y="978" as="sourcePoint" />
            <mxPoint x="2350" y="1028" as="targetPoint" />
          </mxGeometry>
        </mxCell>
        <mxCell id="GAt9rsMN1fzWW2gVmVyb-124" value="" style="endArrow=classic;html=1;rounded=0;fontSize=16;fontColor=default;" parent="1" edge="1">
          <mxGeometry width="50" height="50" relative="1" as="geometry">
            <mxPoint x="2254.4999999999995" y="908" as="sourcePoint" />
            <mxPoint x="2254" y="968" as="targetPoint" />
          </mxGeometry>
        </mxCell>
        <mxCell id="GAt9rsMN1fzWW2gVmVyb-125" value="" style="endArrow=classic;html=1;rounded=0;fontSize=16;fontColor=default;" parent="1" edge="1">
          <mxGeometry width="50" height="50" relative="1" as="geometry">
            <mxPoint x="2159.9999999999995" y="978" as="sourcePoint" />
            <mxPoint x="2159.9999999999995" y="1048" as="targetPoint" />
          </mxGeometry>
        </mxCell>
        <mxCell id="GAt9rsMN1fzWW2gVmVyb-126" value="" style="whiteSpace=wrap;html=1;fontSize=16;fillColor=#b0e3e6;strokeColor=#0e8088;rounded=1;labelBackgroundColor=none;labelBorderColor=none;fontStyle=0;" parent="1" vertex="1">
          <mxGeometry x="2720" y="1038" width="232.5" height="10" as="geometry" />
        </mxCell>
        <mxCell id="GAt9rsMN1fzWW2gVmVyb-127" value="" style="endArrow=classic;html=1;rounded=0;fontSize=16;fontColor=default;" parent="1" edge="1">
          <mxGeometry width="50" height="50" relative="1" as="geometry">
            <mxPoint x="2720.4999999999995" y="911" as="sourcePoint" />
            <mxPoint x="2720.0000000000005" y="971" as="targetPoint" />
          </mxGeometry>
        </mxCell>
        <mxCell id="GAt9rsMN1fzWW2gVmVyb-128" value="" style="endArrow=classic;html=1;rounded=0;fontSize=16;fontColor=default;" parent="1" edge="1">
          <mxGeometry width="50" height="50" relative="1" as="geometry">
            <mxPoint x="2650.4999999999995" y="984" as="sourcePoint" />
            <mxPoint x="2650.0000000000005" y="1044" as="targetPoint" />
          </mxGeometry>
        </mxCell>
        <mxCell id="GAt9rsMN1fzWW2gVmVyb-129" value="" style="endArrow=classic;html=1;rounded=0;fontSize=16;fontColor=default;" parent="1" edge="1">
          <mxGeometry width="50" height="50" relative="1" as="geometry">
            <mxPoint x="2831.14" y="975.36" as="sourcePoint" />
            <mxPoint x="2830" y="1038" as="targetPoint" />
          </mxGeometry>
        </mxCell>
        <mxCell id="GAt9rsMN1fzWW2gVmVyb-130" value="" style="whiteSpace=wrap;html=1;fontSize=16;fillColor=#b0e3e6;strokeColor=#0e8088;rounded=1;labelBackgroundColor=none;labelBorderColor=none;fontStyle=0;" parent="1" vertex="1">
          <mxGeometry x="3239" y="1048" width="232.5" height="10" as="geometry" />
        </mxCell>
        <mxCell id="GAt9rsMN1fzWW2gVmVyb-209" style="edgeStyle=orthogonalEdgeStyle;rounded=0;orthogonalLoop=1;jettySize=auto;html=1;exitX=0.5;exitY=1;exitDx=0;exitDy=0;entryX=0.071;entryY=0.5;entryDx=0;entryDy=0;entryPerimeter=0;" parent="1" source="GAt9rsMN1fzWW2gVmVyb-131" target="GAt9rsMN1fzWW2gVmVyb-208" edge="1">
          <mxGeometry relative="1" as="geometry" />
        </mxCell>
        <mxCell id="GAt9rsMN1fzWW2gVmVyb-131" value=" View X-Rays" style="whiteSpace=wrap;html=1;fontSize=16;fillColor=#b0e3e6;strokeColor=#0e8088;rounded=1;labelBackgroundColor=none;labelBorderColor=none;fontStyle=0;" parent="1" vertex="1">
          <mxGeometry x="3096.5" y="1054" width="120" height="60" as="geometry" />
        </mxCell>
        <mxCell id="GAt9rsMN1fzWW2gVmVyb-132" value="" style="endArrow=classic;html=1;rounded=0;fontSize=16;fontColor=default;" parent="1" edge="1">
          <mxGeometry width="50" height="50" relative="1" as="geometry">
            <mxPoint x="3156.5" y="990" as="sourcePoint" />
            <mxPoint x="3156" y="1050" as="targetPoint" />
          </mxGeometry>
        </mxCell>
        <mxCell id="GAt9rsMN1fzWW2gVmVyb-133" value="" style="endArrow=classic;html=1;rounded=0;fontSize=16;fontColor=default;" parent="1" edge="1">
          <mxGeometry width="50" height="50" relative="1" as="geometry">
            <mxPoint x="3349.5" y="987" as="sourcePoint" />
            <mxPoint x="3349" y="1047" as="targetPoint" />
          </mxGeometry>
        </mxCell>
        <mxCell id="GAt9rsMN1fzWW2gVmVyb-134" value="" style="endArrow=classic;html=1;rounded=0;fontSize=16;fontColor=default;" parent="1" edge="1">
          <mxGeometry width="50" height="50" relative="1" as="geometry">
            <mxPoint x="3233.5" y="912" as="sourcePoint" />
            <mxPoint x="3233" y="972" as="targetPoint" />
          </mxGeometry>
        </mxCell>
        <mxCell id="GAt9rsMN1fzWW2gVmVyb-135" value="" style="whiteSpace=wrap;html=1;fontSize=16;fillColor=#b0e3e6;strokeColor=#0e8088;rounded=1;labelBackgroundColor=none;labelBorderColor=none;fontStyle=0;" parent="1" vertex="1">
          <mxGeometry x="3909" y="1049" width="232.5" height="10" as="geometry" />
        </mxCell>
        <mxCell id="GAt9rsMN1fzWW2gVmVyb-136" value="" style="endArrow=classic;html=1;rounded=0;fontSize=16;fontColor=default;" parent="1" edge="1">
          <mxGeometry width="50" height="50" relative="1" as="geometry">
            <mxPoint x="4019.5" y="988" as="sourcePoint" />
            <mxPoint x="4019" y="1048" as="targetPoint" />
          </mxGeometry>
        </mxCell>
        <mxCell id="GAt9rsMN1fzWW2gVmVyb-217" style="edgeStyle=orthogonalEdgeStyle;rounded=0;orthogonalLoop=1;jettySize=auto;html=1;exitX=0.5;exitY=1;exitDx=0;exitDy=0;entryX=0.192;entryY=0.2;entryDx=0;entryDy=0;entryPerimeter=0;" parent="1" source="GAt9rsMN1fzWW2gVmVyb-137" target="GAt9rsMN1fzWW2gVmVyb-214" edge="1">
          <mxGeometry relative="1" as="geometry" />
        </mxCell>
        <mxCell id="GAt9rsMN1fzWW2gVmVyb-137" value=" View Invoices" style="whiteSpace=wrap;html=1;fontSize=16;fillColor=#b0e3e6;strokeColor=#0e8088;rounded=1;labelBackgroundColor=none;labelBorderColor=none;fontStyle=0;" parent="1" vertex="1">
          <mxGeometry x="3754.5" y="1047" width="120" height="60" as="geometry" />
        </mxCell>
        <mxCell id="GAt9rsMN1fzWW2gVmVyb-138" value="" style="endArrow=classic;html=1;rounded=0;fontSize=16;fontColor=default;" parent="1" edge="1">
          <mxGeometry width="50" height="50" relative="1" as="geometry">
            <mxPoint x="3814.5" y="983" as="sourcePoint" />
            <mxPoint x="3814" y="1043" as="targetPoint" />
          </mxGeometry>
        </mxCell>
        <mxCell id="GAt9rsMN1fzWW2gVmVyb-139" value="" style="endArrow=classic;html=1;rounded=0;fontSize=16;fontColor=default;" parent="1" edge="1">
          <mxGeometry width="50" height="50" relative="1" as="geometry">
            <mxPoint x="3867.5" y="913" as="sourcePoint" />
            <mxPoint x="3867" y="973" as="targetPoint" />
          </mxGeometry>
        </mxCell>
        <mxCell id="GAt9rsMN1fzWW2gVmVyb-140" value="" style="whiteSpace=wrap;html=1;fontSize=16;fillColor=#b0e3e6;strokeColor=#0e8088;rounded=1;labelBackgroundColor=none;labelBorderColor=none;fontStyle=0;" parent="1" vertex="1">
          <mxGeometry x="70" y="1778" width="410" height="10" as="geometry" />
        </mxCell>
        <mxCell id="GAt9rsMN1fzWW2gVmVyb-141" value="" style="whiteSpace=wrap;html=1;fontSize=16;fillColor=#b0e3e6;strokeColor=#0e8088;rounded=1;labelBackgroundColor=none;labelBorderColor=none;fontStyle=0;" parent="1" vertex="1">
          <mxGeometry x="534" y="1778" width="410" height="10" as="geometry" />
        </mxCell>
        <mxCell id="GAt9rsMN1fzWW2gVmVyb-142" value="" style="whiteSpace=wrap;html=1;fontSize=16;fillColor=#b0e3e6;strokeColor=#0e8088;rounded=1;labelBackgroundColor=none;labelBorderColor=none;fontStyle=0;" parent="1" vertex="1">
          <mxGeometry x="944" y="1598" width="276" height="10" as="geometry" />
        </mxCell>
        <mxCell id="GAt9rsMN1fzWW2gVmVyb-146" value="" style="endArrow=classic;html=1;rounded=0;exitX=0.5;exitY=1;exitDx=0;exitDy=0;" parent="1" source="GAt9rsMN1fzWW2gVmVyb-33" edge="1">
          <mxGeometry width="50" height="50" relative="1" as="geometry">
            <mxPoint x="970" y="1588" as="sourcePoint" />
            <mxPoint x="1003" y="1598" as="targetPoint" />
          </mxGeometry>
        </mxCell>
        <mxCell id="GAt9rsMN1fzWW2gVmVyb-147" value="" style="endArrow=classic;html=1;rounded=0;exitX=0.5;exitY=1;exitDx=0;exitDy=0;" parent="1" edge="1">
          <mxGeometry width="50" height="50" relative="1" as="geometry">
            <mxPoint x="1162" y="1535" as="sourcePoint" />
            <mxPoint x="1162" y="1600" as="targetPoint" />
          </mxGeometry>
        </mxCell>
        <mxCell id="GAt9rsMN1fzWW2gVmVyb-148" value="" style="endArrow=classic;html=1;rounded=0;exitX=0.5;exitY=1;exitDx=0;exitDy=0;" parent="1" source="GAt9rsMN1fzWW2gVmVyb-142" edge="1">
          <mxGeometry width="50" height="50" relative="1" as="geometry">
            <mxPoint x="1081" y="1628" as="sourcePoint" />
            <mxPoint x="1081" y="1858" as="targetPoint" />
          </mxGeometry>
        </mxCell>
        <mxCell id="GAt9rsMN1fzWW2gVmVyb-149" value="" style="endArrow=classic;html=1;rounded=0;exitX=0.5;exitY=1;exitDx=0;exitDy=0;" parent="1" edge="1">
          <mxGeometry width="50" height="50" relative="1" as="geometry">
            <mxPoint x="875" y="1669" as="sourcePoint" />
            <mxPoint x="875" y="1778" as="targetPoint" />
          </mxGeometry>
        </mxCell>
        <mxCell id="GAt9rsMN1fzWW2gVmVyb-150" value="" style="endArrow=classic;html=1;rounded=0;exitX=0.5;exitY=1;exitDx=0;exitDy=0;" parent="1" source="GAt9rsMN1fzWW2gVmVyb-99" edge="1">
          <mxGeometry width="50" height="50" relative="1" as="geometry">
            <mxPoint x="738" y="1713" as="sourcePoint" />
            <mxPoint x="738" y="1778" as="targetPoint" />
          </mxGeometry>
        </mxCell>
        <mxCell id="GAt9rsMN1fzWW2gVmVyb-151" value="" style="endArrow=classic;html=1;rounded=0;exitX=0.627;exitY=1;exitDx=0;exitDy=0;exitPerimeter=0;" parent="1" source="GAt9rsMN1fzWW2gVmVyb-100" edge="1">
          <mxGeometry width="50" height="50" relative="1" as="geometry">
            <mxPoint x="600" y="1713" as="sourcePoint" />
            <mxPoint x="600" y="1778" as="targetPoint" />
          </mxGeometry>
        </mxCell>
        <mxCell id="GAt9rsMN1fzWW2gVmVyb-152" value="" style="endArrow=classic;html=1;rounded=0;exitX=0.5;exitY=1;exitDx=0;exitDy=0;" parent="1" source="GAt9rsMN1fzWW2gVmVyb-89" edge="1">
          <mxGeometry width="50" height="50" relative="1" as="geometry">
            <mxPoint x="301" y="1713" as="sourcePoint" />
            <mxPoint x="301" y="1778" as="targetPoint" />
          </mxGeometry>
        </mxCell>
        <mxCell id="GAt9rsMN1fzWW2gVmVyb-153" value="" style="endArrow=classic;html=1;rounded=0;exitX=0.5;exitY=1;exitDx=0;exitDy=0;" parent="1" source="GAt9rsMN1fzWW2gVmVyb-94" edge="1">
          <mxGeometry width="50" height="50" relative="1" as="geometry">
            <mxPoint x="438" y="1713" as="sourcePoint" />
            <mxPoint x="438" y="1778" as="targetPoint" />
          </mxGeometry>
        </mxCell>
        <mxCell id="GAt9rsMN1fzWW2gVmVyb-154" value="" style="endArrow=classic;html=1;rounded=0;exitX=0.5;exitY=1;exitDx=0;exitDy=0;" parent="1" source="GAt9rsMN1fzWW2gVmVyb-90" edge="1">
          <mxGeometry width="50" height="50" relative="1" as="geometry">
            <mxPoint x="158" y="1708" as="sourcePoint" />
            <mxPoint x="147" y="1778" as="targetPoint" />
          </mxGeometry>
        </mxCell>
        <mxCell id="GAt9rsMN1fzWW2gVmVyb-232" style="edgeStyle=orthogonalEdgeStyle;rounded=0;orthogonalLoop=1;jettySize=auto;html=1;exitX=0.5;exitY=1;exitDx=0;exitDy=0;" parent="1" source="GAt9rsMN1fzWW2gVmVyb-155" edge="1">
          <mxGeometry relative="1" as="geometry">
            <mxPoint x="641.0000000000005" y="1822" as="sourcePoint" />
            <mxPoint x="641" y="1990" as="targetPoint" />
          </mxGeometry>
        </mxCell>
        <mxCell id="GAt9rsMN1fzWW2gVmVyb-155" value="" style="whiteSpace=wrap;html=1;fontSize=16;fillColor=#b0e3e6;strokeColor=#0e8088;rounded=1;labelBackgroundColor=none;labelBorderColor=none;fontStyle=0;" parent="1" vertex="1">
          <mxGeometry x="48" y="1858" width="1187" height="10" as="geometry" />
        </mxCell>
        <mxCell id="GAt9rsMN1fzWW2gVmVyb-156" value="" style="endArrow=classic;html=1;rounded=0;exitX=0.5;exitY=1;exitDx=0;exitDy=0;" parent="1" edge="1">
          <mxGeometry width="50" height="50" relative="1" as="geometry">
            <mxPoint x="727" y="1793" as="sourcePoint" />
            <mxPoint x="727" y="1858" as="targetPoint" />
          </mxGeometry>
        </mxCell>
        <mxCell id="GAt9rsMN1fzWW2gVmVyb-157" value="" style="endArrow=classic;html=1;rounded=0;exitX=0.5;exitY=1;exitDx=0;exitDy=0;" parent="1" edge="1">
          <mxGeometry width="50" height="50" relative="1" as="geometry">
            <mxPoint x="274" y="1793" as="sourcePoint" />
            <mxPoint x="274" y="1858" as="targetPoint" />
          </mxGeometry>
        </mxCell>
        <mxCell id="GAt9rsMN1fzWW2gVmVyb-175" style="edgeStyle=orthogonalEdgeStyle;rounded=0;orthogonalLoop=1;jettySize=auto;html=1;exitX=0.5;exitY=1;exitDx=0;exitDy=0;entryX=0.527;entryY=0.286;entryDx=0;entryDy=0;entryPerimeter=0;" parent="1" source="GAt9rsMN1fzWW2gVmVyb-165" target="GAt9rsMN1fzWW2gVmVyb-167" edge="1">
          <mxGeometry relative="1" as="geometry">
            <mxPoint x="1707" y="1618" as="targetPoint" />
          </mxGeometry>
        </mxCell>
        <mxCell id="GAt9rsMN1fzWW2gVmVyb-165" value="" style="whiteSpace=wrap;html=1;fontSize=16;fillColor=#b0e3e6;strokeColor=#0e8088;rounded=1;labelBackgroundColor=none;labelBorderColor=none;fontStyle=0;" parent="1" vertex="1">
          <mxGeometry x="1497.25" y="1488" width="419.5" height="10" as="geometry" />
        </mxCell>
        <mxCell id="GAt9rsMN1fzWW2gVmVyb-181" style="edgeStyle=orthogonalEdgeStyle;rounded=0;orthogonalLoop=1;jettySize=auto;html=1;exitX=0.5;exitY=1;exitDx=0;exitDy=0;" parent="1" source="GAt9rsMN1fzWW2gVmVyb-166" edge="1">
          <mxGeometry relative="1" as="geometry">
            <mxPoint x="1395" y="1623" as="targetPoint" />
          </mxGeometry>
        </mxCell>
        <mxCell id="GAt9rsMN1fzWW2gVmVyb-166" value="" style="whiteSpace=wrap;html=1;fontSize=16;fillColor=#b0e3e6;strokeColor=#0e8088;rounded=1;labelBackgroundColor=none;labelBorderColor=none;fontStyle=0;" parent="1" vertex="1">
          <mxGeometry x="1235" y="1234" width="320" height="10" as="geometry" />
        </mxCell>
        <mxCell id="GAt9rsMN1fzWW2gVmVyb-231" style="edgeStyle=orthogonalEdgeStyle;rounded=0;orthogonalLoop=1;jettySize=auto;html=1;exitX=0.5;exitY=1;exitDx=0;exitDy=0;" parent="1" source="GAt9rsMN1fzWW2gVmVyb-167" edge="1">
          <mxGeometry relative="1" as="geometry">
            <mxPoint x="1685" y="1984" as="targetPoint" />
            <Array as="points" />
            <mxPoint x="1680" y="1690" as="sourcePoint" />
          </mxGeometry>
        </mxCell>
        <mxCell id="GAt9rsMN1fzWW2gVmVyb-167" value="" style="whiteSpace=wrap;html=1;fontSize=16;fillColor=#b0e3e6;strokeColor=#0e8088;rounded=1;labelBackgroundColor=none;labelBorderColor=none;fontStyle=0;" parent="1" vertex="1">
          <mxGeometry x="1270" y="1631" width="830" height="10" as="geometry" />
        </mxCell>
        <mxCell id="GAt9rsMN1fzWW2gVmVyb-171" value="" style="endArrow=classic;html=1;rounded=0;fontSize=16;fontColor=default;entryX=0.5;entryY=0;entryDx=0;entryDy=0;exitX=0.5;exitY=1;exitDx=0;exitDy=0;" parent="1" source="GAt9rsMN1fzWW2gVmVyb-118" edge="1">
          <mxGeometry width="50" height="50" relative="1" as="geometry">
            <mxPoint x="1853.5719999999994" y="1421" as="sourcePoint" />
            <mxPoint x="1853.61" y="1488" as="targetPoint" />
          </mxGeometry>
        </mxCell>
        <mxCell id="GAt9rsMN1fzWW2gVmVyb-172" value="" style="endArrow=classic;html=1;rounded=0;fontSize=16;fontColor=default;entryX=0.5;entryY=0;entryDx=0;entryDy=0;exitX=0.5;exitY=1;exitDx=0;exitDy=0;" parent="1" edge="1">
          <mxGeometry width="50" height="50" relative="1" as="geometry">
            <mxPoint x="1717.96" y="1392" as="sourcePoint" />
            <mxPoint x="1716.5699999999997" y="1488" as="targetPoint" />
          </mxGeometry>
        </mxCell>
        <mxCell id="GAt9rsMN1fzWW2gVmVyb-173" value="" style="endArrow=classic;html=1;rounded=0;fontSize=16;fontColor=default;entryX=0.5;entryY=0;entryDx=0;entryDy=0;exitX=0.5;exitY=1;exitDx=0;exitDy=0;" parent="1" edge="1">
          <mxGeometry width="50" height="50" relative="1" as="geometry">
            <mxPoint x="1563.3899999999999" y="1389" as="sourcePoint" />
            <mxPoint x="1561.9999999999995" y="1485" as="targetPoint" />
          </mxGeometry>
        </mxCell>
        <mxCell id="GAt9rsMN1fzWW2gVmVyb-176" value="" style="endArrow=classic;html=1;rounded=0;fontSize=16;fontColor=default;exitX=0.5;exitY=1;exitDx=0;exitDy=0;" parent="1" source="GAt9rsMN1fzWW2gVmVyb-107" edge="1">
          <mxGeometry width="50" height="50" relative="1" as="geometry">
            <mxPoint x="1480" y="1178" as="sourcePoint" />
            <mxPoint x="1474" y="1239" as="targetPoint" />
          </mxGeometry>
        </mxCell>
        <mxCell id="GAt9rsMN1fzWW2gVmVyb-177" value="" style="endArrow=classic;html=1;rounded=0;fontSize=16;fontColor=default;exitX=0.5;exitY=1;exitDx=0;exitDy=0;entryX=0.25;entryY=0;entryDx=0;entryDy=0;" parent="1" source="GAt9rsMN1fzWW2gVmVyb-108" target="GAt9rsMN1fzWW2gVmVyb-166" edge="1">
          <mxGeometry width="50" height="50" relative="1" as="geometry">
            <mxPoint x="1484" y="1178" as="sourcePoint" />
            <mxPoint x="1483" y="1228" as="targetPoint" />
          </mxGeometry>
        </mxCell>
        <mxCell id="GAt9rsMN1fzWW2gVmVyb-193" style="edgeStyle=orthogonalEdgeStyle;rounded=0;orthogonalLoop=1;jettySize=auto;html=1;exitX=0.5;exitY=1;exitDx=0;exitDy=0;entryX=0.664;entryY=-0.271;entryDx=0;entryDy=0;entryPerimeter=0;" parent="1" source="GAt9rsMN1fzWW2gVmVyb-182" target="GAt9rsMN1fzWW2gVmVyb-190" edge="1">
          <mxGeometry relative="1" as="geometry" />
        </mxCell>
        <mxCell id="GAt9rsMN1fzWW2gVmVyb-182" value="" style="whiteSpace=wrap;html=1;fontSize=16;fillColor=#b0e3e6;strokeColor=#0e8088;rounded=1;labelBackgroundColor=none;labelBorderColor=none;fontStyle=0;" parent="1" vertex="1">
          <mxGeometry x="2224" y="1335" width="280" height="10" as="geometry" />
        </mxCell>
        <mxCell id="GAt9rsMN1fzWW2gVmVyb-188" value="" style="edgeStyle=orthogonalEdgeStyle;rounded=0;orthogonalLoop=1;jettySize=auto;html=1;" parent="1" edge="1">
          <mxGeometry relative="1" as="geometry">
            <mxPoint x="2436" y="1242" as="sourcePoint" />
            <mxPoint x="2436" y="1338" as="targetPoint" />
          </mxGeometry>
        </mxCell>
        <mxCell id="GAt9rsMN1fzWW2gVmVyb-189" value="" style="edgeStyle=orthogonalEdgeStyle;rounded=0;orthogonalLoop=1;jettySize=auto;html=1;" parent="1" edge="1">
          <mxGeometry relative="1" as="geometry">
            <mxPoint x="2309" y="1238" as="sourcePoint" />
            <mxPoint x="2309" y="1334" as="targetPoint" />
          </mxGeometry>
        </mxCell>
        <mxCell id="GAt9rsMN1fzWW2gVmVyb-229" style="edgeStyle=orthogonalEdgeStyle;rounded=0;orthogonalLoop=1;jettySize=auto;html=1;exitX=0.5;exitY=1;exitDx=0;exitDy=0;" parent="1" source="GAt9rsMN1fzWW2gVmVyb-190" edge="1">
          <mxGeometry relative="1" as="geometry">
            <mxPoint x="2285" y="1988" as="targetPoint" />
            <mxPoint x="2285" y="1530" as="sourcePoint" />
          </mxGeometry>
        </mxCell>
        <mxCell id="GAt9rsMN1fzWW2gVmVyb-190" value="" style="whiteSpace=wrap;html=1;fontSize=16;fillColor=#b0e3e6;strokeColor=#0e8088;rounded=1;labelBackgroundColor=none;labelBorderColor=none;fontStyle=0;" parent="1" vertex="1">
          <mxGeometry x="2046" y="1488" width="477.5" height="10" as="geometry" />
        </mxCell>
        <mxCell id="GAt9rsMN1fzWW2gVmVyb-194" style="edgeStyle=orthogonalEdgeStyle;rounded=0;orthogonalLoop=1;jettySize=auto;html=1;exitX=0.5;exitY=1;exitDx=0;exitDy=0;entryX=0.664;entryY=-0.271;entryDx=0;entryDy=0;entryPerimeter=0;" parent="1" source="GAt9rsMN1fzWW2gVmVyb-195" edge="1">
          <mxGeometry relative="1" as="geometry">
            <mxPoint x="2846.0600000000004" y="1481.2900000000004" as="targetPoint" />
          </mxGeometry>
        </mxCell>
        <mxCell id="GAt9rsMN1fzWW2gVmVyb-195" value="" style="whiteSpace=wrap;html=1;fontSize=16;fillColor=#b0e3e6;strokeColor=#0e8088;rounded=1;labelBackgroundColor=none;labelBorderColor=none;fontStyle=0;" parent="1" vertex="1">
          <mxGeometry x="2707" y="1331" width="280" height="10" as="geometry" />
        </mxCell>
        <mxCell id="GAt9rsMN1fzWW2gVmVyb-221" style="edgeStyle=orthogonalEdgeStyle;rounded=0;orthogonalLoop=1;jettySize=auto;html=1;exitX=0.5;exitY=1;exitDx=0;exitDy=0;" parent="1" source="GAt9rsMN1fzWW2gVmVyb-196" edge="1">
          <mxGeometry relative="1" as="geometry">
            <mxPoint x="2819" y="1770" as="targetPoint" />
          </mxGeometry>
        </mxCell>
        <mxCell id="GAt9rsMN1fzWW2gVmVyb-196" value="" style="whiteSpace=wrap;html=1;fontSize=16;fillColor=#b0e3e6;strokeColor=#0e8088;rounded=1;labelBackgroundColor=none;labelBorderColor=none;fontStyle=0;" parent="1" vertex="1">
          <mxGeometry x="2582" y="1485" width="477.5" height="10" as="geometry" />
        </mxCell>
        <mxCell id="GAt9rsMN1fzWW2gVmVyb-204" style="edgeStyle=orthogonalEdgeStyle;rounded=0;orthogonalLoop=1;jettySize=auto;html=1;exitX=0.5;exitY=1;exitDx=0;exitDy=0;entryX=0.75;entryY=0;entryDx=0;entryDy=0;" parent="1" target="GAt9rsMN1fzWW2gVmVyb-207" edge="1">
          <mxGeometry relative="1" as="geometry">
            <mxPoint x="3430" y="1242" as="sourcePoint" />
            <mxPoint x="3419.142857142858" y="1278" as="targetPoint" />
            <Array as="points">
              <mxPoint x="3436" y="1242" />
            </Array>
          </mxGeometry>
        </mxCell>
        <mxCell id="GAt9rsMN1fzWW2gVmVyb-205" style="edgeStyle=orthogonalEdgeStyle;rounded=0;orthogonalLoop=1;jettySize=auto;html=1;exitX=0.5;exitY=1;exitDx=0;exitDy=0;" parent="1" edge="1">
          <mxGeometry relative="1" as="geometry">
            <mxPoint x="3289.5" y="1242" as="sourcePoint" />
            <mxPoint x="3290" y="1328" as="targetPoint" />
            <Array as="points">
              <mxPoint x="3290" y="1260" />
              <mxPoint x="3290" y="1260" />
            </Array>
          </mxGeometry>
        </mxCell>
        <mxCell id="GAt9rsMN1fzWW2gVmVyb-206" style="edgeStyle=orthogonalEdgeStyle;rounded=0;orthogonalLoop=1;jettySize=auto;html=1;exitX=0.5;exitY=1;exitDx=0;exitDy=0;entryX=0.664;entryY=-0.271;entryDx=0;entryDy=0;entryPerimeter=0;" parent="1" source="GAt9rsMN1fzWW2gVmVyb-207" edge="1">
          <mxGeometry relative="1" as="geometry">
            <mxPoint x="3365.0600000000004" y="1481.2900000000004" as="targetPoint" />
          </mxGeometry>
        </mxCell>
        <mxCell id="GAt9rsMN1fzWW2gVmVyb-207" value="" style="whiteSpace=wrap;html=1;fontSize=16;fillColor=#b0e3e6;strokeColor=#0e8088;rounded=1;labelBackgroundColor=none;labelBorderColor=none;fontStyle=0;" parent="1" vertex="1">
          <mxGeometry x="3226" y="1331" width="280" height="10" as="geometry" />
        </mxCell>
        <mxCell id="GAt9rsMN1fzWW2gVmVyb-222" style="edgeStyle=orthogonalEdgeStyle;rounded=0;orthogonalLoop=1;jettySize=auto;html=1;exitX=0.5;exitY=1;exitDx=0;exitDy=0;" parent="1" source="GAt9rsMN1fzWW2gVmVyb-208" edge="1">
          <mxGeometry relative="1" as="geometry">
            <mxPoint x="3375" y="1780" as="targetPoint" />
          </mxGeometry>
        </mxCell>
        <mxCell id="GAt9rsMN1fzWW2gVmVyb-208" value="" style="whiteSpace=wrap;html=1;fontSize=16;fillColor=#b0e3e6;strokeColor=#0e8088;rounded=1;labelBackgroundColor=none;labelBorderColor=none;fontStyle=0;" parent="1" vertex="1">
          <mxGeometry x="3120" y="1485" width="512.5" height="10" as="geometry" />
        </mxCell>
        <mxCell id="GAt9rsMN1fzWW2gVmVyb-210" style="edgeStyle=orthogonalEdgeStyle;rounded=0;orthogonalLoop=1;jettySize=auto;html=1;exitX=0.5;exitY=1;exitDx=0;exitDy=0;entryX=0.664;entryY=-0.271;entryDx=0;entryDy=0;entryPerimeter=0;" parent="1" source="GAt9rsMN1fzWW2gVmVyb-211" target="GAt9rsMN1fzWW2gVmVyb-214" edge="1">
          <mxGeometry relative="1" as="geometry" />
        </mxCell>
        <mxCell id="GAt9rsMN1fzWW2gVmVyb-211" value="" style="whiteSpace=wrap;html=1;fontSize=16;fillColor=#b0e3e6;strokeColor=#0e8088;rounded=1;labelBackgroundColor=none;labelBorderColor=none;fontStyle=0;" parent="1" vertex="1">
          <mxGeometry x="3902" y="1333" width="280" height="10" as="geometry" />
        </mxCell>
        <mxCell id="GAt9rsMN1fzWW2gVmVyb-212" value="" style="edgeStyle=orthogonalEdgeStyle;rounded=0;orthogonalLoop=1;jettySize=auto;html=1;" parent="1" edge="1">
          <mxGeometry relative="1" as="geometry">
            <mxPoint x="4100" y="1252" as="sourcePoint" />
            <mxPoint x="4100" y="1328" as="targetPoint" />
          </mxGeometry>
        </mxCell>
        <mxCell id="GAt9rsMN1fzWW2gVmVyb-213" value="" style="edgeStyle=orthogonalEdgeStyle;rounded=0;orthogonalLoop=1;jettySize=auto;html=1;entryX=0.25;entryY=0;entryDx=0;entryDy=0;" parent="1" target="GAt9rsMN1fzWW2gVmVyb-211" edge="1">
          <mxGeometry relative="1" as="geometry">
            <mxPoint x="3973" y="1248" as="sourcePoint" />
            <mxPoint x="3973" y="1344" as="targetPoint" />
          </mxGeometry>
        </mxCell>
        <mxCell id="GAt9rsMN1fzWW2gVmVyb-224" style="edgeStyle=orthogonalEdgeStyle;rounded=0;orthogonalLoop=1;jettySize=auto;html=1;exitX=0.5;exitY=1;exitDx=0;exitDy=0;" parent="1" source="GAt9rsMN1fzWW2gVmVyb-214" edge="1">
          <mxGeometry relative="1" as="geometry">
            <mxPoint x="3963" y="1780" as="targetPoint" />
          </mxGeometry>
        </mxCell>
        <mxCell id="GAt9rsMN1fzWW2gVmVyb-214" value="" style="whiteSpace=wrap;html=1;fontSize=16;fillColor=#b0e3e6;strokeColor=#0e8088;rounded=1;labelBackgroundColor=none;labelBorderColor=none;fontStyle=0;" parent="1" vertex="1">
          <mxGeometry x="3724" y="1486" width="477.5" height="10" as="geometry" />
        </mxCell>
        <mxCell id="GAt9rsMN1fzWW2gVmVyb-237" style="edgeStyle=orthogonalEdgeStyle;rounded=0;orthogonalLoop=1;jettySize=auto;html=1;entryX=0.797;entryY=-0.471;entryDx=0;entryDy=0;entryPerimeter=0;" parent="1" source="GAt9rsMN1fzWW2gVmVyb-218" target="GAt9rsMN1fzWW2gVmVyb-233" edge="1">
          <mxGeometry relative="1" as="geometry">
            <mxPoint x="3505" y="2610" as="targetPoint" />
          </mxGeometry>
        </mxCell>
        <mxCell id="GAt9rsMN1fzWW2gVmVyb-218" value="" style="whiteSpace=wrap;html=1;fontSize=16;fillColor=#b0e3e6;strokeColor=#0e8088;rounded=1;labelBackgroundColor=none;labelBorderColor=none;fontStyle=0;" parent="1" vertex="1">
          <mxGeometry x="2650" y="1788" width="1710" height="10" as="geometry" />
        </mxCell>
        <mxCell id="GAt9rsMN1fzWW2gVmVyb-235" style="edgeStyle=orthogonalEdgeStyle;rounded=0;orthogonalLoop=1;jettySize=auto;html=1;exitX=0.5;exitY=1;exitDx=0;exitDy=0;" parent="1" source="GAt9rsMN1fzWW2gVmVyb-225" edge="1">
          <mxGeometry relative="1" as="geometry">
            <mxPoint x="1343" y="2280" as="targetPoint" />
            <mxPoint x="1343" y="2010" as="sourcePoint" />
          </mxGeometry>
        </mxCell>
        <mxCell id="GAt9rsMN1fzWW2gVmVyb-225" value="" style="whiteSpace=wrap;html=1;fontSize=16;fillColor=#b0e3e6;strokeColor=#0e8088;rounded=1;labelBackgroundColor=none;labelBorderColor=none;fontStyle=0;" parent="1" vertex="1">
          <mxGeometry x="48" y="1990" width="2590" height="10" as="geometry" />
        </mxCell>
        <mxCell id="n0YC_AmKJQIeZP32KnMs-3" style="edgeStyle=orthogonalEdgeStyle;rounded=0;orthogonalLoop=1;jettySize=auto;html=1;entryX=0.5;entryY=0;entryDx=0;entryDy=0;" edge="1" parent="1" source="GAt9rsMN1fzWW2gVmVyb-233" target="GAt9rsMN1fzWW2gVmVyb-238">
          <mxGeometry relative="1" as="geometry">
            <mxPoint x="2049" y="2770" as="targetPoint" />
          </mxGeometry>
        </mxCell>
        <mxCell id="GAt9rsMN1fzWW2gVmVyb-233" value="" style="whiteSpace=wrap;html=1;fontSize=16;fillColor=#b0e3e6;strokeColor=#0e8088;rounded=1;labelBackgroundColor=none;labelBorderColor=none;fontStyle=0;" parent="1" vertex="1">
          <mxGeometry x="-306" y="2290" width="4780" height="10" as="geometry" />
        </mxCell>
        <mxCell id="GAt9rsMN1fzWW2gVmVyb-242" style="edgeStyle=orthogonalEdgeStyle;rounded=0;orthogonalLoop=1;jettySize=auto;html=1;exitX=0;exitY=0.5;exitDx=0;exitDy=0;entryX=0;entryY=0.5;entryDx=0;entryDy=0;" parent="1" source="GAt9rsMN1fzWW2gVmVyb-238" target="1JV9OjOV9Jat2uO-FX8t-7" edge="1">
          <mxGeometry relative="1" as="geometry">
            <Array as="points">
              <mxPoint x="-600" y="2585" />
              <mxPoint x="-600" y="340" />
              <mxPoint x="1472" y="340" />
            </Array>
          </mxGeometry>
        </mxCell>
        <mxCell id="GAt9rsMN1fzWW2gVmVyb-245" style="edgeStyle=orthogonalEdgeStyle;rounded=0;orthogonalLoop=1;jettySize=auto;html=1;fontSize=21;" parent="1" source="GAt9rsMN1fzWW2gVmVyb-238" target="GAt9rsMN1fzWW2gVmVyb-244" edge="1">
          <mxGeometry relative="1" as="geometry" />
        </mxCell>
        <mxCell id="GAt9rsMN1fzWW2gVmVyb-238" value="Do somrthing" style="rhombus;whiteSpace=wrap;html=1;fontSize=16;fillColor=#b0e3e6;strokeColor=#0e8088;rounded=1;labelBackgroundColor=none;labelBorderColor=none;fontStyle=0;" parent="1" vertex="1">
          <mxGeometry x="1991.75" y="2510" width="184.5" height="150" as="geometry" />
        </mxCell>
        <mxCell id="GAt9rsMN1fzWW2gVmVyb-243" value="&lt;font style=&quot;font-size: 21px;&quot;&gt;Yes&lt;/font&gt;" style="text;html=1;align=center;verticalAlign=middle;resizable=0;points=[];autosize=1;strokeColor=none;fillColor=none;" parent="1" vertex="1">
          <mxGeometry x="1836" y="2530" width="60" height="40" as="geometry" />
        </mxCell>
        <mxCell id="GAt9rsMN1fzWW2gVmVyb-244" value="" style="ellipse;html=1;shape=endState;fillColor=#000000;strokeColor=#ff0000;fontSize=21;" parent="1" vertex="1">
          <mxGeometry x="2039" y="2850" width="90" height="80" as="geometry" />
        </mxCell>
        <mxCell id="GAt9rsMN1fzWW2gVmVyb-246" value="No" style="text;html=1;align=center;verticalAlign=middle;resizable=0;points=[];autosize=1;strokeColor=none;fillColor=none;fontSize=21;" parent="1" vertex="1">
          <mxGeometry x="2100" y="2750" width="50" height="40" as="geometry" />
        </mxCell>
        <mxCell id="GAt9rsMN1fzWW2gVmVyb-247" value="Valid" style="text;html=1;align=center;verticalAlign=middle;resizable=0;points=[];autosize=1;strokeColor=none;fillColor=none;fontSize=21;" parent="1" vertex="1">
          <mxGeometry x="1485" y="420" width="70" height="40" as="geometry" />
        </mxCell>
        <mxCell id="GAt9rsMN1fzWW2gVmVyb-251" value="Invalid" style="text;html=1;align=center;verticalAlign=middle;resizable=0;points=[];autosize=1;strokeColor=none;fillColor=none;fontSize=21;" parent="1" vertex="1">
          <mxGeometry x="1640" y="270" width="80" height="40" as="geometry" />
        </mxCell>
        <mxCell id="OYrXC9NLMJ1WuIDrOlup-2" value="" style="edgeStyle=orthogonalEdgeStyle;rounded=0;orthogonalLoop=1;jettySize=auto;html=1;" parent="1" source="GAt9rsMN1fzWW2gVmVyb-252" edge="1">
          <mxGeometry relative="1" as="geometry">
            <mxPoint x="1539" y="670" as="targetPoint" />
          </mxGeometry>
        </mxCell>
        <mxCell id="GAt9rsMN1fzWW2gVmVyb-252" value="&lt;span style=&quot;font-size: 19px;&quot;&gt;view admin dashboard&lt;/span&gt;" style="rounded=1;whiteSpace=wrap;html=1;labelBackgroundColor=none;labelBorderColor=none;fontStyle=0;fillColor=#b0e3e6;strokeColor=#0e8088;fontSize=19;" parent="1" vertex="1">
          <mxGeometry x="1472" y="540" width="136" height="60" as="geometry" />
        </mxCell>
        <mxCell id="GAt9rsMN1fzWW2gVmVyb-257" style="edgeStyle=orthogonalEdgeStyle;rounded=0;orthogonalLoop=1;jettySize=auto;html=1;exitX=-0.025;exitY=0.027;exitDx=0;exitDy=0;fontSize=21;exitPerimeter=0;" parent="1" source="GAt9rsMN1fzWW2gVmVyb-258" edge="1">
          <mxGeometry relative="1" as="geometry">
            <mxPoint x="787" y="983" as="sourcePoint" />
            <mxPoint x="709" y="908" as="targetPoint" />
            <Array as="points">
              <mxPoint x="778" y="983" />
              <mxPoint x="869" y="983" />
              <mxPoint x="869" y="908" />
            </Array>
          </mxGeometry>
        </mxCell>
        <mxCell id="GAt9rsMN1fzWW2gVmVyb-261" style="edgeStyle=orthogonalEdgeStyle;rounded=0;orthogonalLoop=1;jettySize=auto;html=1;exitX=0.5;exitY=1;exitDx=0;exitDy=0;fontSize=21;" parent="1" source="GAt9rsMN1fzWW2gVmVyb-255" target="GAt9rsMN1fzWW2gVmVyb-26" edge="1">
          <mxGeometry relative="1" as="geometry" />
        </mxCell>
        <mxCell id="GAt9rsMN1fzWW2gVmVyb-255" value="View Join Requests" style="rhombus;whiteSpace=wrap;html=1;fontSize=19;fillColor=#b0e3e6;strokeColor=#0e8088;rounded=1;labelBackgroundColor=none;labelBorderColor=none;fontStyle=0;" parent="1" vertex="1">
          <mxGeometry x="634" y="928" width="144" height="110" as="geometry" />
        </mxCell>
        <mxCell id="GAt9rsMN1fzWW2gVmVyb-258" value="Reject" style="text;html=1;align=center;verticalAlign=middle;resizable=0;points=[];autosize=1;strokeColor=none;fillColor=none;fontSize=21;" parent="1" vertex="1">
          <mxGeometry x="780" y="980" width="80" height="40" as="geometry" />
        </mxCell>
        <mxCell id="GAt9rsMN1fzWW2gVmVyb-262" value="accept&lt;br&gt;" style="text;html=1;align=center;verticalAlign=middle;resizable=0;points=[];autosize=1;strokeColor=none;fillColor=none;fontSize=21;" parent="1" vertex="1">
          <mxGeometry x="694" y="1050" width="90" height="40" as="geometry" />
        </mxCell>
        <mxCell id="ROxkOyrsCLlqrJmaMzNw-1" value="&lt;font style=&quot;font-size: 59px;&quot;&gt;&lt;i&gt;&lt;b&gt;&lt;u&gt;Admin&lt;/u&gt;&lt;/b&gt;&lt;/i&gt;&lt;/font&gt;" style="text;html=1;align=center;verticalAlign=middle;resizable=0;points=[];autosize=1;strokeColor=none;fillColor=none;fontSize=18;" parent="1" vertex="1">
          <mxGeometry x="1448" y="-210" width="210" height="80" as="geometry" />
        </mxCell>
        <mxCell id="OYrXC9NLMJ1WuIDrOlup-1" value="Add Articles" style="whiteSpace=wrap;html=1;fontSize=16;fillColor=#b0e3e6;strokeColor=#0e8088;rounded=1;labelBackgroundColor=none;labelBorderColor=none;fontStyle=0;" parent="1" vertex="1">
          <mxGeometry x="-319" y="849" width="120" height="62" as="geometry" />
        </mxCell>
        <mxCell id="OYrXC9NLMJ1WuIDrOlup-4" value="" style="endArrow=classic;html=1;rounded=0;fontSize=16;fontColor=default;" parent="1" edge="1">
          <mxGeometry width="50" height="50" relative="1" as="geometry">
            <mxPoint x="-256" y="763" as="sourcePoint" />
            <mxPoint x="-256" y="840" as="targetPoint" />
          </mxGeometry>
        </mxCell>
        <mxCell id="OYrXC9NLMJ1WuIDrOlup-50" style="edgeStyle=orthogonalEdgeStyle;rounded=0;orthogonalLoop=1;jettySize=auto;html=1;exitX=0.5;exitY=1;exitDx=0;exitDy=0;" parent="1" source="OYrXC9NLMJ1WuIDrOlup-5" edge="1">
          <mxGeometry relative="1" as="geometry">
            <mxPoint x="-259" y="2290" as="targetPoint" />
          </mxGeometry>
        </mxCell>
        <mxCell id="OYrXC9NLMJ1WuIDrOlup-5" value="" style="whiteSpace=wrap;html=1;fontSize=16;fillColor=#b0e3e6;strokeColor=#0e8088;rounded=1;labelBackgroundColor=none;labelBorderColor=none;fontStyle=0;" parent="1" vertex="1">
          <mxGeometry x="-584" y="1333" width="650" height="10" as="geometry" />
        </mxCell>
        <mxCell id="OYrXC9NLMJ1WuIDrOlup-19" value="" style="endArrow=classic;html=1;rounded=0;fontSize=16;fontColor=default;entryX=0.5;entryY=0;entryDx=0;entryDy=0;exitX=0.529;exitY=0.7;exitDx=0;exitDy=0;exitPerimeter=0;" parent="1" source="OYrXC9NLMJ1WuIDrOlup-22" target="OYrXC9NLMJ1WuIDrOlup-20" edge="1">
          <mxGeometry width="50" height="50" relative="1" as="geometry">
            <mxPoint x="-248" y="993" as="sourcePoint" />
            <mxPoint x="-217.76999999999998" y="1041" as="targetPoint" />
          </mxGeometry>
        </mxCell>
        <mxCell id="OYrXC9NLMJ1WuIDrOlup-20" value="Delete Articles" style="whiteSpace=wrap;html=1;fontSize=16;fillColor=#b0e3e6;strokeColor=#0e8088;rounded=1;labelBackgroundColor=none;labelBorderColor=none;fontStyle=0;" parent="1" vertex="1">
          <mxGeometry x="-306" y="1050" width="120" height="60" as="geometry" />
        </mxCell>
        <mxCell id="OYrXC9NLMJ1WuIDrOlup-21" value="View Articles" style="whiteSpace=wrap;html=1;fontSize=16;fillColor=#b0e3e6;strokeColor=#0e8088;rounded=1;labelBackgroundColor=none;labelBorderColor=none;fontStyle=0;" parent="1" vertex="1">
          <mxGeometry x="-461" y="1051" width="120" height="60" as="geometry" />
        </mxCell>
        <mxCell id="OYrXC9NLMJ1WuIDrOlup-22" value="" style="whiteSpace=wrap;html=1;fontSize=16;fillColor=#b0e3e6;strokeColor=#0e8088;rounded=1;labelBackgroundColor=none;labelBorderColor=none;fontStyle=0;" parent="1" vertex="1">
          <mxGeometry x="-446" y="976" width="378" height="10" as="geometry" />
        </mxCell>
        <mxCell id="OYrXC9NLMJ1WuIDrOlup-23" value="" style="endArrow=classic;html=1;rounded=0;fontSize=16;fontColor=default;entryX=0.5;entryY=0;entryDx=0;entryDy=0;" parent="1" edge="1">
          <mxGeometry width="50" height="50" relative="1" as="geometry">
            <mxPoint x="-401" y="985.9999999999998" as="sourcePoint" />
            <mxPoint x="-401" y="1056" as="targetPoint" />
          </mxGeometry>
        </mxCell>
        <mxCell id="OYrXC9NLMJ1WuIDrOlup-24" value="" style="endArrow=classic;html=1;rounded=0;fontSize=16;fontColor=default;entryX=0.5;entryY=0;entryDx=0;entryDy=0;exitX=0.529;exitY=0.7;exitDx=0;exitDy=0;exitPerimeter=0;" parent="1" edge="1">
          <mxGeometry width="50" height="50" relative="1" as="geometry">
            <mxPoint x="-108.03800000000001" y="986" as="sourcePoint" />
            <mxPoint x="-108" y="1053.0000000000005" as="targetPoint" />
          </mxGeometry>
        </mxCell>
        <mxCell id="OYrXC9NLMJ1WuIDrOlup-25" value="Update Articles" style="whiteSpace=wrap;html=1;fontSize=16;fillColor=#b0e3e6;strokeColor=#0e8088;rounded=1;labelBackgroundColor=none;labelBorderColor=none;fontStyle=0;" parent="1" vertex="1">
          <mxGeometry x="-169" y="1053" width="120" height="60" as="geometry" />
        </mxCell>
        <mxCell id="OYrXC9NLMJ1WuIDrOlup-26" value="" style="endArrow=classic;html=1;rounded=0;fontSize=16;fontColor=default;exitX=0.529;exitY=0.7;exitDx=0;exitDy=0;exitPerimeter=0;" parent="1" edge="1">
          <mxGeometry width="50" height="50" relative="1" as="geometry">
            <mxPoint x="-262.26800000000003" y="917" as="sourcePoint" />
            <mxPoint x="-262" y="977" as="targetPoint" />
          </mxGeometry>
        </mxCell>
        <mxCell id="OYrXC9NLMJ1WuIDrOlup-27" value="" style="whiteSpace=wrap;html=1;fontSize=16;fillColor=#b0e3e6;strokeColor=#0e8088;rounded=1;labelBackgroundColor=none;labelBorderColor=none;fontStyle=0;" parent="1" vertex="1">
          <mxGeometry x="-478" y="1223" width="410" height="10" as="geometry" />
        </mxCell>
        <mxCell id="OYrXC9NLMJ1WuIDrOlup-28" value="" style="endArrow=classic;html=1;rounded=0;exitX=0.5;exitY=1;exitDx=0;exitDy=0;" parent="1" source="OYrXC9NLMJ1WuIDrOlup-20" edge="1">
          <mxGeometry width="50" height="50" relative="1" as="geometry">
            <mxPoint x="-247" y="1158" as="sourcePoint" />
            <mxPoint x="-247" y="1223" as="targetPoint" />
          </mxGeometry>
        </mxCell>
        <mxCell id="OYrXC9NLMJ1WuIDrOlup-29" value="" style="endArrow=classic;html=1;rounded=0;exitX=0.5;exitY=1;exitDx=0;exitDy=0;" parent="1" source="OYrXC9NLMJ1WuIDrOlup-25" edge="1">
          <mxGeometry width="50" height="50" relative="1" as="geometry">
            <mxPoint x="-110" y="1158" as="sourcePoint" />
            <mxPoint x="-110" y="1223" as="targetPoint" />
          </mxGeometry>
        </mxCell>
        <mxCell id="OYrXC9NLMJ1WuIDrOlup-30" value="" style="endArrow=classic;html=1;rounded=0;exitX=0.5;exitY=1;exitDx=0;exitDy=0;" parent="1" source="OYrXC9NLMJ1WuIDrOlup-21" edge="1">
          <mxGeometry width="50" height="50" relative="1" as="geometry">
            <mxPoint x="-390" y="1153" as="sourcePoint" />
            <mxPoint x="-401" y="1223" as="targetPoint" />
          </mxGeometry>
        </mxCell>
        <mxCell id="OYrXC9NLMJ1WuIDrOlup-45" value="" style="whiteSpace=wrap;html=1;fontSize=16;fillColor=#b0e3e6;strokeColor=#0e8088;rounded=1;labelBackgroundColor=none;labelBorderColor=none;fontStyle=0;" parent="1" vertex="1">
          <mxGeometry x="-430" y="758" width="580" height="10" as="geometry" />
        </mxCell>
        <mxCell id="OYrXC9NLMJ1WuIDrOlup-46" value="" style="endArrow=classic;html=1;rounded=0;fontSize=16;fontColor=default;" parent="1" edge="1">
          <mxGeometry width="50" height="50" relative="1" as="geometry">
            <mxPoint x="-28" y="688" as="sourcePoint" />
            <mxPoint x="-28" y="758" as="targetPoint" />
          </mxGeometry>
        </mxCell>
        <mxCell id="OYrXC9NLMJ1WuIDrOlup-48" value="" style="endArrow=classic;html=1;rounded=0;exitX=0.5;exitY=1;exitDx=0;exitDy=0;" parent="1" edge="1">
          <mxGeometry width="50" height="50" relative="1" as="geometry">
            <mxPoint x="-266" y="1219" as="sourcePoint" />
            <mxPoint x="-267" y="1329" as="targetPoint" />
          </mxGeometry>
        </mxCell>
      </root>
    </mxGraphModel>
  </diagram>
</mxfile>
